<?xml version="1.0" encoding="UTF-8" standalone="no"?>
<!DOCTYPE svg PUBLIC "-//W3C//DTD SVG 1.1//EN"
"http://www.w3.org/Graphics/SVG/1.1/DTD/svg11.dtd">
<svg viewBox="0 0 935 1210" version="1.1" xmlns="http://www.w3.org/2000/svg" xmlns:xlink="http://www.w3.org/1999/xlink">
<defs>
<style type="text/css"><![CDATA[
.g0_10{
fill: #F3F3F3;
}
.g1_10{
fill: #000;
}
]]></style>
</defs>
<path d="M118 627.9H817v31H118v-31Z" class="g0_10"/>
<path d="M149 986c0 .5 -.1 1 -.3 1.5c-.3 .5 -.5 .9 -.9 1.3c-.4 .4 -.8 .7 -1.3 .9c-.5 .2 -1 .3 -1.6 .3c-.5 0 -1 -.1 -1.5 -.3c-.5 -.2 -.9 -.5 -1.3 -.9c-.4 -.4 -.7 -.8 -.9 -1.3c-.2 -.5 -.3 -1 -.3 -1.5c0 -.5 .1 -1.1 .3 -1.5c.2 -.5 .5 -1 .9 -1.3c.4 -.4 .8 -.7 1.3 -.9c.5 -.2 1 -.3 1.5 -.3c.6 0 1.1 .1 1.6 .3c.5 .2 .9 .5 1.3 .9c.4 .3 .6 .8 .9 1.3c.2 .4 .3 1 .3 1.5Z" class="g1_10"/>
</svg>