<?xml version="1.0" encoding="UTF-8" standalone="no"?>
<!DOCTYPE svg PUBLIC "-//W3C//DTD SVG 1.1//EN"
"http://www.w3.org/Graphics/SVG/1.1/DTD/svg11.dtd">
<svg viewBox="0 0 909 1286" version="1.1" xmlns="http://www.w3.org/2000/svg" xmlns:xlink="http://www.w3.org/1999/xlink">
<defs>
<clipPath id="c0_276"><path d="M76.1 1210.2V76.1H833.4V1210.2Z"/></clipPath>
<style type="text/css"><![CDATA[
.g0_276{
fill: #808080;
}
.g1_276{
fill: none;
stroke: #00F;
stroke-width: 1.528;
stroke-linecap: square;
stroke-miterlimit: 10;
}
]]></style>
</defs>
<path d="M330.1 241.4H579.3v1.5H330.1v-1.5Z" class="g0_276"/>
<path clip-path="url(#c0_276)" d="M76.4 274.2H96.3Zm0 36.7H96.3Zm0 58H96.3Zm0 58.1H96.3Zm0 36.6H96.3Zm0 36.7H96.3Zm0 36.6H96.3Zm0 36.7H96.3Zm0 36.7H96.3Zm0 100.8h29Zm0 36.6h29Zm0 58.1h29Zm0 58h29Zm0 36.7h29Zm0 58.1h29Zm0 58h29Zm0 36.7h29Zm0 58h29Zm0 36.7h29Z" class="g1_276"/>
</svg>