<?xml version="1.0" encoding="UTF-8" standalone="no"?>
<!DOCTYPE svg PUBLIC "-//W3C//DTD SVG 1.1//EN"
"http://www.w3.org/Graphics/SVG/1.1/DTD/svg11.dtd">
<svg viewBox="0 0 909 1286" version="1.1" xmlns="http://www.w3.org/2000/svg" xmlns:xlink="http://www.w3.org/1999/xlink">
<defs>
<style type="text/css"><![CDATA[
.g0_124{
fill: #000;
stroke: #000;
stroke-width: 1.528;
stroke-linecap: square;
stroke-miterlimit: 10;
}
]]></style>
</defs>
<path fill-rule="evenodd" d="M120.7 118.4c0 2.1 -1.7 3.8 -3.8 3.8c-2.1 0 -3.8 -1.7 -3.8 -3.8c0 -2.1 1.7 -3.8 3.8 -3.8c2.1 0 3.8 1.7 3.8 3.8" class="g0_124"/>
<path fill-rule="evenodd" d="M120.7 145.9c0 2.1 -1.7 3.8 -3.8 3.8c-2.1 0 -3.8 -1.7 -3.8 -3.8c0 -2.1 1.7 -3.8 3.8 -3.8c2.1 0 3.8 1.7 3.8 3.8" class="g0_124"/>
<path fill-rule="evenodd" d="M120.7 200.9c0 2.1 -1.7 3.8 -3.8 3.8c-2.1 0 -3.8 -1.7 -3.8 -3.8c0 -2.1 1.7 -3.8 3.8 -3.8c2.1 0 3.8 1.7 3.8 3.8" class="g0_124"/>
<path fill-rule="evenodd" d="M120.7 255.9c0 2.1 -1.7 3.8 -3.8 3.8c-2.1 0 -3.8 -1.7 -3.8 -3.8c0 -2.1 1.7 -3.8 3.8 -3.8c2.1 0 3.8 1.7 3.8 3.8" class="g0_124"/>
<path fill-rule="evenodd" d="M120.7 283.4c0 2.1 -1.7 3.8 -3.8 3.8c-2.1 0 -3.8 -1.7 -3.8 -3.8c0 -2.1 1.7 -3.9 3.8 -3.9c2.1 0 3.8 1.8 3.8 3.9" class="g0_124"/>
<path fill-rule="evenodd" d="M120.7 310.9c0 2.1 -1.7 3.8 -3.8 3.8c-2.1 0 -3.8 -1.7 -3.8 -3.8c0 -2.1 1.7 -3.9 3.8 -3.9c2.1 0 3.8 1.8 3.8 3.9" class="g0_124"/>
<path fill-rule="evenodd" d="M120.7 338.4c0 2.1 -1.7 3.8 -3.8 3.8c-2.1 0 -3.8 -1.7 -3.8 -3.8c0 -2.2 1.7 -3.9 3.8 -3.9c2.1 0 3.8 1.7 3.8 3.9" class="g0_124"/>
<path fill-rule="evenodd" d="M120.7 365.9c0 2.1 -1.7 3.8 -3.8 3.8c-2.1 0 -3.8 -1.7 -3.8 -3.8c0 -2.2 1.7 -3.9 3.8 -3.9c2.1 0 3.8 1.7 3.8 3.9" class="g0_124"/>
<path fill-rule="evenodd" d="M120.7 393.4c0 2.1 -1.7 3.8 -3.8 3.8c-2.1 0 -3.8 -1.7 -3.8 -3.8c0 -2.2 1.7 -3.9 3.8 -3.9c2.1 0 3.8 1.7 3.8 3.9" class="g0_124"/>
<path fill-rule="evenodd" d="M120.7 448.3c0 2.2 -1.7 3.9 -3.8 3.9c-2.1 0 -3.8 -1.7 -3.8 -3.9c0 -2.1 1.7 -3.8 3.8 -3.8c2.1 0 3.8 1.7 3.8 3.8" class="g0_124"/>
<path fill-rule="evenodd" d="M120.7 475.8c0 2.1 -1.7 3.9 -3.8 3.9c-2.1 0 -3.8 -1.8 -3.8 -3.9c0 -2.1 1.7 -3.8 3.8 -3.8c2.1 0 3.8 1.7 3.8 3.8" class="g0_124"/>
<path fill-rule="evenodd" d="M120.7 503.3c0 2.1 -1.7 3.9 -3.8 3.9c-2.1 0 -3.8 -1.8 -3.8 -3.9c0 -2.1 1.7 -3.8 3.8 -3.8c2.1 0 3.8 1.7 3.8 3.8" class="g0_124"/>
<path fill-rule="evenodd" d="M120.7 530.8c0 2.1 -1.7 3.9 -3.8 3.9c-2.1 0 -3.8 -1.8 -3.8 -3.9c0 -2.1 1.7 -3.8 3.8 -3.8c2.1 0 3.8 1.7 3.8 3.8" class="g0_124"/>
<path fill-rule="evenodd" d="M120.7 558.3c0 2.1 -1.7 3.8 -3.8 3.8c-2.1 0 -3.8 -1.7 -3.8 -3.8c0 -2.1 1.7 -3.8 3.8 -3.8c2.1 0 3.8 1.7 3.8 3.8" class="g0_124"/>
<path fill-rule="evenodd" d="M120.7 585.8c0 2.1 -1.7 3.8 -3.8 3.8c-2.1 0 -3.8 -1.7 -3.8 -3.8c0 -2.1 1.7 -3.8 3.8 -3.8c2.1 0 3.8 1.7 3.8 3.8" class="g0_124"/>
<path fill-rule="evenodd" d="M120.7 613.3c0 2.1 -1.7 3.8 -3.8 3.8c-2.1 0 -3.8 -1.7 -3.8 -3.8c0 -2.1 1.7 -3.8 3.8 -3.8c2.1 0 3.8 1.7 3.8 3.8" class="g0_124"/>
</svg>