<svg viewBox="0 0 935 1210" version="1.1" xmlns="http://www.w3.org/2000/svg">
<defs>
<clipPath id="c0_1402"><path d="M109.7 1100.3V109.7H825.3v990.6Z"/></clipPath>
<style>
.g0_1402{fill:#FFF;}
.g1_1402{fill:#000;}
</style>
</defs>
<path clip-path="url(#c0_1402)" d="M110-3849.9H825V3190H110V-3849.9Z" class="g0_1402"/>
<path d="M292.2 1045H818.1v1.1H292.2V1045Z" class="g1_1402"/>
<path d="M817 977.4h1.1v68.7H817V977.4Z" class="g1_1402"/>
<path d="M118 1045H293.3v1.1H118V1045Z" class="g1_1402"/>
<path d="M118 977.4h1.2v68.7H118V977.4Z" class="g1_1402"/>
<path d="M292.2 977.4h1.1v68.7h-1.1V977.4Z" class="g1_1402"/>
<path d="M292.2 977.4H818.1v1.1H292.2v-1.1Z" class="g1_1402"/>
<path d="M817 930.4h1.1v48.1H817V930.4Z" class="g1_1402"/>
<path d="M118 977.4H293.3v1.1H118v-1.1Z" class="g1_1402"/>
<path d="M118 930.4h1.2v48.1H118V930.4Z" class="g1_1402"/>
<path d="M292.2 930.4h1.1v48.1h-1.1V930.4Z" class="g1_1402"/>
<path d="M292.2 930.4H818.1v1.2H292.2v-1.2Z" class="g1_1402"/>
<path d="M817 862.8h1.1v68.8H817V862.8Z" class="g1_1402"/>
<path d="M118 930.4H293.3v1.2H118v-1.2Z" class="g1_1402"/>
<path d="M118 862.8h1.2v68.8H118V862.8Z" class="g1_1402"/>
<path d="M292.2 862.8h1.1v68.8h-1.1V862.8Z" class="g1_1402"/>
<path d="M292.2 862.8H818.1V864H292.2v-1.2Z" class="g1_1402"/>
<path d="M817 712.7h1.1V864H817V712.7Z" class="g1_1402"/>
<path d="M118 862.8H293.3V864H118v-1.2Z" class="g1_1402"/>
<path d="M118 712.7h1.2V864H118V712.7Z" class="g1_1402"/>
<path d="M292.2 712.7h1.1V864h-1.1V712.7Z" class="g1_1402"/>
<path d="M292.2 712.7H818.1v1.2H292.2v-1.2Z" class="g1_1402"/>
<path d="M817 617.6h1.1v96.3H817V617.6Z" class="g1_1402"/>
<path d="M118 712.7H293.3v1.2H118v-1.2Z" class="g1_1402"/>
<path d="M118 617.6h1.2v96.3H118V617.6Z" class="g1_1402"/>
<path d="M292.2 617.6h1.1v96.3h-1.1V617.6Z" class="g1_1402"/>
<path d="M292.2 617.6H818.1v1.2H292.2v-1.2Z" class="g1_1402"/>
<path d="M817 522.5h1.1v96.3H817V522.5Z" class="g1_1402"/>
<path d="M118 617.6H293.3v1.2H118v-1.2Z" class="g1_1402"/>
<path d="M118 522.5h1.2v96.3H118V522.5Z" class="g1_1402"/>
<path d="M292.2 522.5h1.1v96.3h-1.1V522.5Z" class="g1_1402"/>
<path d="M292.2 522.5H818.1v1.1H292.2v-1.1Z" class="g1_1402"/>
<path d="M817 344.9h1.1V523.6H817V344.9Z" class="g1_1402"/>
<path d="M118 522.5H293.3v1.1H118v-1.1Z" class="g1_1402"/>
<path d="M118 344.9h1.2V523.6H118V344.9Z" class="g1_1402"/>
<path d="M292.2 344.9h1.1V523.6h-1.1V344.9Z" class="g1_1402"/>
<path d="M292.2 112.3H818.1v1.1H292.2v-1.1Z" class="g1_1402"/>
<path d="M292.2 344.9H818.1V346H292.2v-1.1Z" class="g1_1402"/>
<path d="M817 112.3h1.1V346H817V112.3Z" class="g1_1402"/>
<path d="M118 112.3H293.3v1.1H118v-1.1Z" class="g1_1402"/>
<path d="M118 344.9H293.3V346H118v-1.1Z" class="g1_1402"/>
<path d="M118 112.3h1.2V346H118V112.3Z" class="g1_1402"/>
<path d="M292.2 112.3h1.1V346h-1.1V112.3Z" class="g1_1402"/>
<path d="M292.2 112.3H818.1v1.1H292.2v-1.1Z" class="g1_1402"/>
<path d="M118 112.3H293.3v1.1H118v-1.1Z" class="g1_1402"/>
</svg>