<svg viewBox="0 0 909 1286" version="1.1" xmlns="http://www.w3.org/2000/svg">
<defs>
<style>
.g0_1232{fill:#9F9F9F;}
.g1_1232{fill:#E2E2E2;}
</style>
</defs>
<path fill-rule="evenodd" d="M82.5 317H827v-2.4H82.5V317Z" class="g0_1232"/>
<path fill-rule="evenodd" d="M82.5 315h.4v-.4h-.4v.4Z" class="g0_1232"/>
<path fill-rule="evenodd" d="M82.5 315h.4v-.4h-.4v.4Z" class="g0_1232"/>
<path fill-rule="evenodd" d="M82.9 315H826.8v-.4H82.9v.4Z" class="g0_1232"/>
<path fill-rule="evenodd" d="M826.8 315h.4v-.4h-.4v.4Z" class="g1_1232"/>
<path fill-rule="evenodd" d="M826.8 315h.4v-.4h-.4v.4Z" class="g0_1232"/>
<path fill-rule="evenodd" d="M82.5 316.6h.4V315h-.4v1.6Z" class="g0_1232"/>
<path fill-rule="evenodd" d="M826.8 316.6h.4V315h-.4v1.6Z" class="g1_1232"/>
<path fill-rule="evenodd" d="M82.5 317h.4v-.4h-.4v.4Z" class="g0_1232"/>
<path fill-rule="evenodd" d="M82.5 317h.4v-.4h-.4v.4Z" class="g1_1232"/>
<path fill-rule="evenodd" d="M82.9 317H826.8v-.4H82.9v.4Z" class="g1_1232"/>
<path fill-rule="evenodd" d="M826.8 317h.4v-.4h-.4v.4Z" class="g1_1232"/>
<path fill-rule="evenodd" d="M826.8 317h.4v-.4h-.4v.4Z" class="g1_1232"/>
</svg>