<svg viewBox="0 0 909 1286" version="1.1" xmlns="http://www.w3.org/2000/svg">
<defs>
<style>
.g0_736{fill:#000;}
.g1_736{fill:none;stroke:#000;stroke-width:1.099;stroke-miterlimit:10;}
</style>
</defs>
<image preserveAspectRatio="none" x="90" y="118" width="16" height="17" href="img/1.jpg"/>
<path fill-rule="evenodd" d="M113 119.4v-1.2h-.5v-.1h1.1v.1h-.5v1.2Zm1.5 0h-.1v-.6c0 0 0-.1 0-.1c0-.1-.1-.1-.1-.1c0 0 0-.1 0-.1c0 0-.1 0-.1 0q-.1 0-.2 0q0 .1-.1 .1v.8h-.2V118h.2v.5q.1-.1 .2-.1c0 0 .1 0 .1 0c.1 0 .2 0 .3 0c0 .1 0 .2 0 .3Zm.7 0c-.1 0-.3 0-.3-.1c-.1-.1-.2-.2-.2-.4c0-.2 .1-.3 .1-.4c.1-.1 .2-.1 .4-.1q.1 0 .2 0c0 0 .1 0 .1 .1c0 0 .1 .1 .1 .1q0 .1 0 .2v.1h-.7c0 .1 0 .2 .1 .3c0 0 .1 .1 .2 .1q.1 0 .1-.1q.1 0 .1 0q.1 0 .1 0c0 0 .1 0 .1-.1v.2c0 0-.1 0-.1 0q0 .1-.1 .1h-.2Zm.2-.6q0-.1 0-.2c0-.1-.1-.1-.1-.1c0 0-.1 0-.1 0q-.1 0-.1 0q-.1 0-.1 .1q-.1 0-.1 .1v.1Zm1.1 .6h-.1V118h.1Zm.5 0h-.2v-1h.2Zm0-1.2h-.2V118h.2Zm1 1.2h-.1v-.6c0 0 0-.1 0-.1c0-.1-.1-.1-.1-.1c0 0 0-.1 0-.1c0 0-.1 0-.1 0q-.1 0-.2 0c0 .1-.1 .1-.1 .1v.8h-.2v-1h.2v.1q.1-.1 .2-.1c0 0 .1 0 .1 0c.1 0 .2 0 .3 0c0 .1 0 .2 0 .3Zm1.1 0h-.2l-.4-.5v.5h-.2V118h.2v.8l.4-.4h.2l-.4 .4Zm.6 0c-.2 0-.3 0-.4-.1c-.1-.1-.1-.2-.1-.4c0-.2 0-.3 .1-.4c.1-.1 .2-.1 .3-.1c.1 0 .2 0 .2 0q.1 0 .1 .1c.1 0 .1 .1 .1 .1q0 .1 0 .2v.1h-.7c0 .1 .1 .2 .1 .3c.1 0 .2 .1 .3 .1l.1-.1c0 0 .1 0 .1 0h.1v-.1v.2q-.1 .1-.1 .1q-.1 0-.1 0c0 0-.1 0-.1 0Zm.2-.6q0-.1 0-.2q-.1 0-.1 0q0-.1-.1-.1h-.1c0 0-.1 0-.1 0c0 0-.1 0-.1 .1v.1q-.1 0-.1 .1Zm1.1 .6h-.2v-.1c-.1 0-.1 .1-.1 .1h-.2c0 0-.1 0-.1 0q-.1-.1-.1-.1q-.1-.1-.1-.2c0-.1-.1-.1-.1-.2c0-.1 .1-.2 .1-.2c0-.1 0-.2 .1-.2c0-.1 .1-.1 .1-.1q.1 0 .2 0c0 0 .1 0 .1 0q.1 0 .1 0V118h.2Zm-.2-.3v-.5q0-.1-.1-.1h-.1q-.1 0-.2 .1c0 .1-.1 .2-.1 .3c0 .1 0 .2 .1 .3c0 0 .1 0 .2 0c0 0 .1 0 .1 0q.1 0 .1-.1Zm1.2 .3h-.1v-1h.1Zm0-1.2h-.2V118h.2Zm1.5 1.2v-.6c0 0 0-.1-.1-.1q0-.1 0-.1c0 0 0-.1 0-.1c0 0-.1 0-.1 0q-.1 0-.1 0q-.1 .1-.2 .1c0 0 0 .1 0 .1v.7h-.1v-.6c0 0 0-.1 0-.1q0-.1-.1-.1c0 0 0-.1 0-.1c0 0-.1 0-.1 0c0 0-.1 0-.1 .1q-.1 0-.1 0v.8h-.2v-1h.2v.1q0-.1 .1-.1c0 0 .1 0 .1 0c.1 0 .2 0 .2 0c0 0 .1 .1 .1 .1c.1 0 .1-.1 .2-.1c0 0 .1 0 .1 0q.1 0 .1 0q.1 0 .1 0q.1 .1 .1 .2v.8Zm.9-.3v-.2h-.1q-.1 0-.2 0l-.1 .1v.1c0 0 0 .1 0 .1c.1 0 .1 .1 .2 .1c0 0 .1-.1 .1-.1q.1 0 .1-.1Zm0 .2c0 0-.1 0-.1 .1h-.2c0 0-.1 0-.1 0c0 0-.1-.1-.1-.1c0 0-.1 0-.1-.1c0 0 0-.1 0-.1q0-.1 0-.2c.1 0 .1-.1 .2-.1c0 0 .1 0 .2-.1c.1 0 .2 0 .2 0q0-.1 0-.1v-.1c0 0-.1 0-.1 0c0 0-.1 0-.1 0c0 0-.1 0-.1 0c-.1 0-.2 .1-.2 .1v-.2c0 0 .1 0 .1 0q.1 0 .2 0q.1 0 .2 0c0 0 .1 0 .1 0c0 .1 .1 .1 .1 .1q0 .1 0 .2v.7h-.2Zm1.1-.2v-.5q-.1-.1-.1-.1q-.1 0-.1 0c-.1 0-.2 0-.3 .1c0 .1 0 .2 0 .3c0 .1 0 .2 0 .2q.1 .1 .2 .1q.1 0 .2 0c0 0 0-.1 .1-.1Zm-.6 .4l.1 .1q.1 0 .1 0c0 0 .1 0 .1 0q.1 0 .1 0q.1 0 .1-.1c0 0 .1 0 .1-.1v-.2q-.1 .1-.2 .1c0 0-.1 .1-.1 .1c-.1 0-.2-.1-.3-.2c-.1 0-.1-.2-.1-.3c0-.1 0-.2 0-.3c.1 0 .1-.1 .1-.1q.1-.1 .2-.1c0 0 .1 0 .1 0q.1 0 .2 0h.3v.9c0 .1-.1 .3-.2 .3c0 .1-.2 .2-.3 .2q-.1 0-.2-.1c0 0-.1 0-.1 0v-.2Zm1.5-.1c-.2 0-.3 0-.4-.1c-.1-.1-.2-.2-.2-.4c0-.2 .1-.3 .2-.4c.1-.1 .2-.1 .3-.1q.1 0 .2 0c0 0 .1 0 .1 .1c0 0 .1 .1 .1 .1q0 .1 0 .2v.1H126c0 .1 0 .2 .1 .3c.1 0 .1 .1 .3 .1l.1-.1h.1q.1 0 .1-.1v.2h-.1q0 .1-.1 .1q-.1 0-.1 0Zm.2-.6c0-.1-.1-.1-.1-.2q0-.1-.1-.1c0 0-.1 0-.1 0c0 0-.1 0-.1 0c0 0-.1 0-.1 .1l-.1 .1v.1Zm1.3 .6q-.1 0-.2 0q-.1-.1-.1-.1q-.1-.1-.1-.2q-.1-.1-.1-.2c0-.1 0-.2 .1-.2c0-.1 0-.2 .1-.2q0-.1 .1-.1q.1 0 .2 0q.1 0 .2 0c0 0 .1 0 .1 0v.2h-.1c0-.1-.1-.1-.1-.1c0 0-.1 0-.1 0c-.1 0-.2 0-.2 .1c-.1 .1-.1 .2-.1 .3c0 .1 0 .2 .1 .3c0 0 .1 .1 .2 .1c.1 0 .1-.1 .2-.1c0 0 .1 0 .1-.1v.2h-.1q0 .1 0 .1q-.1 0-.1 0c0 0-.1 0-.1 0Zm1-.3v-.2c0 0-.1 0-.1 0q-.1 0-.2 0c0 0-.1 0-.1 .1v.1c0 0 0 .1 0 .1c.1 0 .1 .1 .2 .1c0 0 .1-.1 .1-.1q.1 0 .1-.1Zm0 .2c0 0-.1 0-.1 .1h-.2c0 0-.1 0-.1 0c-.1 0-.1-.1-.1-.1c0 0-.1 0-.1-.1c0 0 0-.1 0-.1q0-.1 0-.2c.1 0 .1-.1 .2-.1c0 0 .1 0 .2-.1q.1 0 .2 0q0-.1 0-.1v-.1q-.1 0-.1 0c0 0-.1 0-.1 0q-.1 0-.2 0c0 0-.1 .1-.1 .1v-.2c0 0 .1 0 .1 0q.1 0 .2 0q.1 0 .2 0c0 0 .1 0 .1 0c0 .1 .1 .1 .1 .1q0 .1 0 .2v.7h-.2Zm1.3 .1H130v-.6c0 0 0-.1 0-.1q0-.1 0-.1c-.1 0-.1-.1-.1-.1c0 0-.1 0-.1 0q-.1 0-.1 0q-.1 .1-.2 .1v.8h-.1v-1h.1v.1q.1-.1 .2-.1c0 0 .1 0 .1 0c.1 0 .2 0 .3 0c0 .1 .1 .2 .1 .3Zm1 0H131v-.6c0 0 0-.1 0-.1q0-.1 0-.1c0 0 0-.1-.1-.1h-.2c0 .1-.1 .1-.1 .1v.8h-.2v-1h.2v.1c0-.1 .1-.1 .1-.1q.1 0 .2 0c.1 0 .2 0 .2 0c.1 .1 .1 .2 .1 .3Zm1.1-.5c0 .1 0 .3-.1 .4c-.1 .1-.2 .1-.4 .1c-.1 0-.2 0-.3-.1c-.1-.1-.1-.3-.1-.4c0-.2 0-.3 .1-.4c.1-.1 .2-.1 .3-.1c.2 0 .3 0 .4 .1c.1 .1 .1 .2 .1 .4Zm-.2 0c0-.1 0-.2 0-.3c-.1-.1-.2-.1-.3-.1c0 0-.1 0-.2 .1c0 .1 0 .2 0 .3c0 .1 0 .2 0 .3c.1 0 .2 .1 .2 .1c.1 0 .2-.1 .3-.1c0-.1 0-.2 0-.3Zm.7 .5c-.1 0-.2 0-.2-.1c-.1 0-.1-.1-.1-.2v-.6h-.1v-.1h.1v-.3h.2v.3h.3v.1h-.3v.5c0 0 0 .1 0 .1c0 0 0 .1 0 .1c.1 0 .1 .1 .1 .1c.1 0 .1-.1 .1-.1c0 0 .1 0 .1 0v.2c0 0-.1 0-.1 0c0 0-.1 0-.1 0Zm1.6-.5c0-.1 0-.2-.1-.3c0-.1-.1-.1-.1-.1q-.1 0-.2 0c0 .1-.1 .1-.1 .1v.6c0 0 .1 0 .1 0c0 .1 .1 .1 .1 .1c.1 0 .2-.1 .2-.1c.1-.1 .1-.2 .1-.3Zm.2 0c0 .1-.1 .3-.2 .4c0 .1-.1 .1-.3 .1c0 0-.1 0-.1 0c0 0-.1-.1-.1-.1v.1h-.2V118h.2v.5c0-.1 .1-.1 .1-.1q.1 0 .2 0c.1 0 .2 0 .3 .1c0 .1 .1 .2 .1 .4Zm.6 .5c-.2 0-.3 0-.4-.1c-.1-.1-.1-.2-.1-.4c0-.2 0-.3 .1-.4c.1-.1 .2-.1 .4-.1c0 0 .1 0 .1 0q.1 0 .2 .1c0 0 0 .1 0 .1q.1 .1 .1 .2v.1h-.7c0 .1 0 .2 0 .3c.1 0 .2 .1 .3 .1c0 0 .1 0 .1-.1c0 0 .1 0 .1 0c0 0 .1 0 .1 0v-.1v.2q-.1 .1-.1 .1c0 0-.1 0-.1 0c0 0-.1 0-.1 0Zm.2-.6q0-.1 0-.2h-.1q0-.1 0-.1q-.1 0-.2 0H135l-.1 .1v.2Zm1.7 .6H137v-.1q-.1 0-.1 0c0 0-.1 .1-.1 .1h-.2c0 0-.1 0-.1 0q-.1-.1-.1-.1q-.1-.1-.1-.2q0-.1 0-.2c0-.1 0-.2 0-.2c0-.1 .1-.2 .1-.2c0-.1 .1-.1 .1-.1q.1 0 .2 0c0 0 .1 0 .1 0q.1 0 .2 0V118h.1Zm-.1-.3v-.5q-.1-.1-.2-.1h-.1q-.1 0-.2 .1c0 .1-.1 .2-.1 .3c0 .1 .1 .2 .1 .3c0 0 .1 0 .2 0c0 0 .1 0 .1 0q.1 0 .2-.1Zm.6 .3h-.2v-1h.2Zm0-1.2h-.2V118h.2Zm.5 1.2q-.1 0-.2 0c-.1 0-.1-.1-.2-.1v-.2h.1q0 .1 0 .1c0 0 .1 0 .1 0h.1c0 .1 .1 .1 .1 .1h.1q0-.1 .1-.1v-.1c0 0 0-.1 0-.1c0 0-.1 0-.1 0q-.1 0-.1 0c-.1 0-.1-.1-.1-.1c-.1 0-.2 0-.2-.1c0 0-.1-.1-.1-.1c0-.1 .1-.2 .2-.3c0 0 .1 0 .2 0q.1 0 .2 0q.1 0 .2 0v.2h-.1c0 0-.1 0-.1-.1q-.1 0-.2 0c0 0-.1 0-.1 0q-.1 .1-.1 .1q0 .1 .1 .1q0 .1 .1 .1h.2c0 0 .1 .1 .1 .1q.1 .1 .1 .2c0 0 0 .1 0 .1q-.1 .1-.1 .1c-.1 0-.1 .1-.1 .1q-.1 0-.2 0Zm1.4-.5c0 .1 0 .3-.1 .4c-.1 0-.2 .1-.3 .1q-.1 0-.2 0c0 0 0-.1-.1-.1v.4h-.2v-1.3h.2v.1q.1-.1 .2-.1c0 0 .1 0 .1 0q.2 0 .3 .1c.1 .1 .1 .2 .1 .4Zm-.2 0c0-.1 0-.2 0-.3q-.1-.1-.2-.1q-.1 0-.1 0q-.1 .1-.2 .1v.6q.1 0 .1 0q.1 0 .2 0c0 0 .1 0 .2 0c0-.1 0-.2 0-.3Zm.6 .5h-.2V118h.2Zm.8-.3v-.2c0 0-.1 0-.2 0c0 0-.1 0-.1 0q-.1 0-.1 .1q-.1 0-.1 .1c0 0 0 .1 .1 .1c0 0 .1 .1 .1 .1c.1 0 .1-.1 .2-.1c0 0 .1 0 .1-.1Zm0 .2h-.1v.1q-.1 0-.1 0c0 0-.1 0-.1 0q-.1 0-.2 0c0 0 0-.1-.1-.1v-.1c0 0 0-.1 0-.1q0-.1 0-.2c0 0 .1-.1 .1-.1c.1 0 .2 0 .2-.1c.1 0 .2 0 .3 0q0-.1 0-.1l-.1-.1h-.1q-.1 0-.2 0c0 0-.1 .1-.2 .1v-.2q.1 0 .2 0c0 0 .1 0 .2 0c0 0 .1 0 .1 0q.1 0 .2 0q0 .1 0 .1q.1 .1 .1 .2v.7h-.2Zm1.2-.9l-.5 1.3h-.2l.2-.4l-.4-.9h.2l.3 .7l.2-.7Zm.6 1c-.2 0-.3 0-.4-.1c-.1-.1-.1-.2-.1-.4c0-.2 0-.3 .1-.4c.1-.1 .2-.1 .4-.1c0 0 .1 0 .1 0q.1 0 .2 .1c0 0 0 .1 0 .1q.1 .1 .1 .2v.1h-.7c0 .1 0 .2 .1 .3c0 0 .1 .1 .2 .1c0 0 .1 0 .1-.1q.1 0 .1 0c0 0 .1 0 .1 0v-.1h.1v.2q-.1 0-.1 0q-.1 .1-.1 .1c0 0-.1 0-.1 0c0 0-.1 0-.1 0Zm.2-.6q0-.1 0-.2h-.1q0-.1 0-.1q-.1 0-.1 0q-.1 0-.2 0l-.1 .1v.2Zm1.1 .6h-.1v-.1q-.1 0-.1 0c0 0 0 .1-.1 .1q-.1 0-.1 0q-.1 0-.2 0c0-.1-.1-.1-.1-.1c0-.1-.1-.1-.1-.2q0-.1 0-.2c0-.1 0-.2 0-.2c0-.1 .1-.2 .1-.2c0-.1 .1-.1 .1-.1c.1 0 .2 0 .2 0q.1 0 .1 0q.1 0 .2 0V118h.1Zm-.1-.3v-.5q-.1-.1-.1-.1q-.1 0-.2 0c0 0-.1 0-.2 .1c0 .1 0 .2 0 .3c0 .1 0 .2 0 .3q.1 0 .2 0c0 0 .1 0 .1 0q.1 0 .2-.1Zm.7 .3h-.3v-.3h.3Zm1.8 0v-1.2h-.5v-.1h1.1v.1h-.4v1.2Zm1.6 0h-.2v-.6c0 0 0-.1 0-.1q0-.1 0-.1c-.1 0-.1-.1-.1-.1c0 0-.1 0-.1 0q-.1 0-.1 0q-.1 .1-.2 .1v.8h-.2V118h.2v.5q.1-.1 .2-.1c0 0 .1 0 .1 0c.1 0 .2 0 .3 0c0 .1 .1 .2 .1 .3Zm.6 0c-.1 0-.2 0-.3-.1c-.1-.1-.2-.2-.2-.4c0-.2 .1-.3 .2-.4c.1-.1 .2-.1 .3-.1q.1 0 .2 0c0 0 .1 0 .1 .1c0 0 .1 .1 .1 .1q0 .1 0 .2v.1h-.7c0 .1 0 .2 .1 .3c.1 0 .1 .1 .2 .1q.1 0 .2-.1h.1q.1 0 .1-.1v.2h-.1q0 .1-.1 .1q-.1 0-.2 0Zm.3-.6q-.1-.1-.1-.2c0-.1-.1-.1-.1-.1c0 0-.1 0-.1 0c0 0-.1 0-.1 0q-.1 0-.1 .1c0 0-.1 0-.1 .1v.1Zm1.4-.7v0q-.1 0-.1 0c-.1 0-.2 0-.2 .1c0 0 0 .1 0 .1v.1h.3v.1h-.3v.9h-.2v-.9h-.1v-.1h.1v-.1c0-.1 0-.2 .1-.2q.1-.1 .2-.1q.1 0 .1 0q.1 0 .1 0Zm.3 1.3h-.2v-1h.2Zm0-1.2h-.2V118h.2Zm.4 1.2h-.2V118h.2Zm.7 0c-.2 0-.3 0-.4-.1c-.1-.1-.1-.2-.1-.4c0-.2 0-.3 .1-.4c.1-.1 .2-.1 .4-.1c0 0 .1 0 .1 0q.1 0 .2 .1c0 0 0 .1 0 .1q.1 .1 .1 .2v.1h-.7c0 .1 0 .2 0 .3c.1 0 .2 .1 .3 .1c0 0 .1 0 .1-.1c0 0 .1 0 .1 0c0 0 .1 0 .1 0v-.1v.2q-.1 .1-.1 .1c0 0-.1 0-.1 0c0 0-.1 0-.1 0Zm.2-.6q0-.1 0-.2h-.1q0-.1 0-.1q-.1 0-.2 0h-.1l-.1 .1v.2Zm2.1 .6v-.6c0 0 0-.1 0-.1q0-.1 0-.1c0 0-.1-.1-.1-.1h-.2c0 .1-.1 .1-.1 .1c0 0 0 .1 0 .1v.7h-.2v-.6c0 0 0-.1 0-.1q0-.1 0-.1c0 0 0-.1-.1-.1H153l-.1 .1c0 0-.1 0-.1 0v.8h-.2v-1h.2v.1q.1-.1 .1-.1q.1 0 .2 0c0 0 .1 0 .2 0c0 0 0 .1 .1 .1c0 0 .1-.1 .1-.1q.1 0 .2 0c0 0 .1 0 .1 0c0 0 .1 0 .1 0q0 .1 .1 .2v.8Zm1-.3v-.2q-.1 0-.2 0c0 0-.1 0-.1 0q-.1 0-.1 .1q-.1 0-.1 .1c0 0 0 .1 .1 .1c0 0 .1 .1 .1 .1c.1 0 .1-.1 .2-.1l.1-.1Zm0 .2h-.1v.1q-.1 0-.1 0c0 0-.1 0-.1 0q-.1 0-.2 0c0 0 0-.1-.1-.1v-.1c0 0 0-.1 0-.1q0-.1 0-.2c0 0 .1-.1 .1-.1c.1 0 .2 0 .2-.1c.1 0 .2 0 .3 0q0-.1 0-.1c0 0-.1 0-.1-.1h-.1q-.1 0-.2 0c0 0-.1 .1-.2 .1v-.2q.1 0 .2 0c0 0 .1 0 .2 0c0 0 .1 0 .1 0q.1 0 .2 0q0 .1 0 .1q.1 .1 .1 .2v.7h-.2Zm1.2-.9l-.5 1.3h-.2l.2-.4l-.4-.9h.2l.3 .7l.2-.7Zm1.5 1h-.1v-.6c0 0 0-.1 0-.1q0-.1-.1-.1c0 0 0-.1 0-.1c0 0-.1 0-.1 0q-.1 0-.1 0q-.1 .1-.2 .1v.8h-.2V118h.2v.5q.1-.1 .2-.1c0 0 .1 0 .1 0c.1 0 .2 0 .3 0c0 .1 0 .2 0 .3Zm.9-.3v-.2q-.1 0-.2 0c0 0-.1 0-.1 0q-.1 0-.2 .1v.1c0 0 0 .1 .1 .1c0 0 0 .1 .1 .1c.1 0 .1-.1 .1-.1q.1 0 .2-.1Zm0 .2c0 0-.1 0-.1 0l-.1 .1q-.1 0-.2 0h-.1c0 0-.1-.1-.1-.1l-.1-.1c0 0 0-.1 0-.1q0-.1 .1-.2c0 0 .1-.1 .1-.1q.1 0 .2-.1c.1 0 .2 0 .3 0q0-.1 0-.1q-.1 0-.1-.1c0 0-.1 0-.1 0h-.1c0 0-.1 0-.1 0c-.1 0-.1 .1-.2 .1v-.2c0 0 .1 0 .1 0c.1 0 .2 0 .2 0q.1 0 .2 0q.1 0 .1 0q.1 .1 .1 .1q0 .1 0 .2v.7h-.1Zm1.2-.9l-.4 1h-.1l-.4-1h.2l.2 .8l.3-.8Zm.6 1c-.2 0-.3 0-.4-.1c-.1-.1-.1-.2-.1-.4c0-.2 0-.3 .1-.4c.1-.1 .2-.1 .3-.1q.1 0 .2 0q.1 0 .1 .1c.1 0 .1 .1 .1 .1q0 .1 0 .2v.1h-.7c0 .1 .1 .2 .1 .3c.1 0 .2 .1 .3 .1l.1-.1c0 0 .1 0 .1 0h.1v-.1v.2h-.1q0 .1 0 .1q-.1 0-.1 0q-.1 0-.1 0Zm.2-.6q0-.1 0-.2c0 0-.1 0-.1 0q0-.1-.1-.1h-.1c0 0-.1 0-.1 0c0 0-.1 0-.1 .1v.1q-.1 0-.1 .1Zm1.6 .1c0-.1 0-.2-.1-.3c0-.1-.1-.1-.1-.1q-.1 0-.2 0c0 .1-.1 .1-.1 .1v.6c0 0 .1 0 .1 0c0 .1 .1 .1 .1 .1c.1 0 .2-.1 .2-.1c.1-.1 .1-.2 .1-.3Zm.2 0c0 .1-.1 .3-.1 .4c-.1 .1-.2 .1-.4 .1c0 0-.1 0-.1 0c0 0-.1-.1-.1-.1v.1h-.2V118h.2v.5c0-.1 .1-.1 .1-.1q.1 0 .2 0c.1 0 .2 0 .3 .1c0 .1 .1 .2 .1 .4Zm.6 .5c-.2 0-.3 0-.4-.1c-.1-.1-.1-.2-.1-.4c0-.2 0-.3 .1-.4c.1-.1 .2-.1 .4-.1c0 0 .1 0 .1 0q.1 0 .2 .1c0 0 0 .1 0 .1q.1 .1 .1 .2v.1h-.7c0 .1 0 .2 .1 .3c0 0 .1 .1 .2 .1c0 0 .1 0 .1-.1q.1 0 .1 0c0 0 .1 0 .1 0v-.1h.1v.2q-.1 0-.1 0q-.1 .1-.1 .1c0 0-.1 0-.1 0c0 0-.1 0-.1 0Zm.2-.6q0-.1 0-.2h-.1q0-.1 0-.1q-.1 0-.1 0q-.1 0-.2 0l-.1 .1v.2Zm.8 .6c-.2 0-.3 0-.4-.1c-.1-.1-.1-.2-.1-.4c0-.2 0-.3 .1-.4c.1-.1 .2-.1 .3-.1c.1 0 .2 0 .2 0q.1 0 .2 .1c0 0 0 .1 0 .1q.1 .1 .1 .2v.1h-.7c0 .1 0 .2 0 .3c.1 0 .2 .1 .3 .1c0 0 .1 0 .1-.1c0 0 .1 0 .1 0c0 0 .1 0 .1 0v-.1v.2q-.1 .1-.1 .1c0 0-.1 0-.1 0c0 0-.1 0-.1 0Zm.2-.6q0-.1 0-.2h-.1q0-.1 0-.1q-.1 0-.2 0h-.1l-.1 .1v.2Zm1.2 .6H165v-.6c0 0 0-.1 0-.1q0-.1-.1-.1c0 0 0-.1 0-.1c0 0-.1 0-.1 0q-.1 0-.2 0q0 .1-.1 .1v.8h-.2v-1h.2v.1q.1-.1 .2-.1c0 0 .1 0 .1 0c.1 0 .2 0 .3 0c0 .1 .1 .2 .1 .3Zm2 0v-.6c0 0 0-.1-.1-.1q0-.1 0-.1c0 0 0-.1 0-.1q-.1 0-.1 0q-.1 0-.1 0q-.1 .1-.2 .1c0 0 0 .1 0 .1v.7h-.1v-.6c0 0 0-.1 0-.1c0-.1-.1-.1-.1-.1c0 0 0-.1 0-.1c0 0-.1 0-.1 0c0 0-.1 0-.1 .1q-.1 0-.1 0v.8H166v-1h.2v.1c0-.1 .1-.1 .1-.1c0 0 .1 0 .1 0c.1 0 .2 0 .2 0c.1 0 .1 .1 .1 .1c.1 0 .1-.1 .2-.1c0 0 .1 0 .1 0q.1 0 .1 0q.1 0 .1 0q.1 .1 .1 .2v.8Zm1.2-.5c0 .1 0 .3-.1 .4c-.1 .1-.2 .1-.3 .1c-.2 0-.3 0-.4-.1c-.1-.1-.1-.3-.1-.4c0-.2 0-.3 .1-.4c.1-.1 .2-.1 .4-.1c.1 0 .2 0 .3 .1c.1 .1 .1 .2 .1 .4Zm-.2 0c0-.1 0-.2 0-.3c-.1-.1-.2-.1-.2-.1c-.1 0-.2 0-.2 .1c-.1 .1-.1 .2-.1 .3c0 .1 0 .2 .1 .3c0 0 .1 .1 .2 .1c0 0 .1-.1 .2-.1c0-.1 0-.2 0-.3Zm1.2-.5l-.4 1h-.1l-.4-1h.2l.2 .8l.3-.8Zm.6 1c-.2 0-.3 0-.4-.1c-.1-.1-.1-.2-.1-.4c0-.2 0-.3 .1-.4c.1-.1 .2-.1 .3-.1c.1 0 .2 0 .2 0q.1 0 .1 .1c.1 0 .1 .1 .1 .1q0 .1 0 .2v.1h-.7c0 .1 .1 .2 .1 .3c.1 0 .2 .1 .3 .1c0 0 .1 0 .1-.1c0 0 .1 0 .1 0c0 0 .1 0 .1 0v-.1v.2q-.1 .1-.1 .1q-.1 0-.1 0c0 0-.1 0-.1 0Zm.2-.6q0-.1 0-.2c0 0-.1 0-.1 0q0-.1-.1-.1h-.1c0 0-.1 0-.1 0l-.1 .1v.1c0 0-.1 0-.1 .1Zm1.1 .6h-.2v-.1c0 0-.1 .1-.1 .1h-.2c0 0-.1 0-.1 0q-.1-.1-.1-.1q-.1-.1-.1-.2q0-.1 0-.2c0-.1 0-.2 0-.2c0-.1 0-.2 .1-.2c0-.1 .1-.1 .1-.1q.1 0 .2 0c0 0 .1 0 .1 0q.1 0 .1 0V118h.2Zm-.2-.3v-.5q0-.1-.1-.1h-.1q-.1 0-.2 .1c0 .1-.1 .2-.1 .3c0 .1 .1 .2 .1 .3c0 0 .1 0 .2 0c0 0 .1 0 .1 0q.1 0 .1-.1Zm.8 0l-.3 .6h-.1l.2-.6Zm1.4-.5v0h-.1q-.1 0-.2 0c0 0-.1 0-.1 .1v.7h-.2v-1h.2v.1c.1 0 .1-.1 .2-.1c0 0 .1 0 .1 0h.1Zm.6 .8c-.2 0-.3 0-.4-.1c-.1-.1-.2-.2-.2-.4c0-.2 .1-.3 .2-.4c.1-.1 .2-.1 .3-.1q.1 0 .2 0c0 0 .1 0 .1 .1c.1 0 .1 .1 .1 .1q0 .1 0 .2v.1h-.7c0 .1 .1 .2 .1 .3c.1 0 .2 .1 .3 .1l.1-.1h.2v-.1v.2h-.1q0 .1 0 .1q-.1 0-.1 0q-.1 0-.1 0Zm.2-.6q0-.1-.1-.2q0-.1-.1-.1h-.1c0 0-.1 0-.1 0c0 0-.1 0-.1 .1l-.1 .1v.1Zm1.1 .6H175v-.6c0 0 0-.1 0-.1q0-.1 0-.1c0 0 0-.1-.1-.1q-.1 0-.2 0c0 .1-.1 .1-.1 .1v.8h-.2v-1h.2v.1c0-.1 .1-.1 .1-.1q.1 0 .2 0c.1 0 .2 0 .2 0c.1 .1 .1 .2 .1 .3Zm.8-.3v-.2c0 0-.1 0-.1 0q-.1 0-.2 0c0 0-.1 0-.1 .1v.1c0 0 0 .1 0 .1c0 0 .1 .1 .2 .1c0 0 .1-.1 .1-.1q.1 0 .1-.1Zm0 .2c0 0-.1 0-.1 .1c0 0-.1 0-.1 0h-.1c0 0-.1 0-.1 0c-.1 0-.1-.1-.1-.1q-.1 0-.1-.1c0 0 0-.1 0-.1q0-.1 0-.2c.1 0 .1-.1 .2-.1c0 0 .1 0 .2-.1q.1 0 .2 0q0-.1 0-.1v-.1q-.1 0-.1 0q-.1 0-.1 0q-.1 0-.2 0c0 0-.1 .1-.1 .1v-.2c0 0 .1 0 .1 0q.1 0 .2 0q.1 0 .2 0c0 0 .1 0 .1 0c0 .1 .1 .1 .1 .1q0 .1 0 .2v.7H176Zm1.6 .1v-.6c0 0 0-.1 0-.1q0-.1 0-.1c0 0 0-.1-.1-.1q-.1 0-.2 0q0 .1-.1 .1c0 0 0 .1 0 .1v.7H177v-.6c0 0 0-.1 0-.1q0-.1 0-.1c0 0 0-.1 0-.1q-.1 0-.1 0q-.1 0-.2 .1h-.1v.8h-.1v-1h.1v.1q.1-.1 .2-.1c0 0 .1 0 .1 0q.1 0 .2 0c0 0 0 .1 .1 .1c0 0 .1-.1 .1-.1q.1 0 .2 0c0 0 .1 0 .1 0c0 0 .1 0 .1 0c0 .1 .1 .1 .1 .2v.8Zm.9 0c-.2 0-.3 0-.4-.1c-.1-.1-.1-.2-.1-.4c0-.2 0-.3 .1-.4c.1-.1 .2-.1 .3-.1c.1 0 .2 0 .2 0q.1 0 .2 .1c0 0 0 .1 0 .1c0 .1 .1 .1 .1 .2v.1h-.8c0 .1 .1 .2 .1 .3c.1 0 .2 .1 .3 .1c0 0 .1 0 .1-.1c0 0 .1 0 .1 0c0 0 .1 0 .1 0v-.1v.2q-.1 .1-.1 .1q-.1 0-.1 0c0 0-.1 0-.1 0Zm.2-.6q0-.1 0-.2c0 0-.1 0-.1 0q0-.1 0-.1q-.1 0-.2 0h-.1l-.1 .1v.1l-.1 .1Zm1.1 .6h-.1v-.1q-.1 0-.1 0c0 0-.1 .1-.1 .1h-.2c0 0-.1 0-.1 0q-.1-.1-.1-.1q-.1-.1-.1-.2q0-.1 0-.2c0-.1 0-.2 0-.2c0-.1 .1-.2 .1-.2c0-.1 .1-.1 .1-.1q.1 0 .2 0q.1 0 .1 0q.1 0 .2 0V118h.1Zm-.1-.3v-.5q-.1-.1-.2-.1h-.1q-.1 0-.2 .1c0 .1-.1 .2-.1 .3c0 .1 .1 .2 .1 .3c0 0 .1 0 .2 0c0 0 .1 0 .1 0q.1 0 .2-.1Zm.7 0l-.2 .6H180l.2-.6Zm1.7-.2c0 .1 0 .3-.1 .4c-.1 .1-.2 .1-.4 .1c-.1 0-.2 0-.3-.1c-.1-.1-.1-.3-.1-.4c0-.2 0-.3 .1-.4c.1-.1 .2-.1 .3-.1c.2 0 .3 0 .4 .1c.1 .1 .1 .2 .1 .4Zm-.2 0c0-.1 0-.2-.1-.3c0-.1-.1-.1-.2-.1q-.1 0-.2 .1c0 .1-.1 .2-.1 .3c0 .1 .1 .2 .1 .3c.1 0 .1 .1 .2 .1c.1 0 .2-.1 .2-.1c.1-.1 .1-.2 .1-.3Zm.9-.3v0q-.1 0-.1 0c0 0-.1 0-.1 0q-.1 0-.2 .1v.7h-.1v-1h.1v.1c.1 0 .2-.1 .2-.1c0 0 .1 0 .1 0q.1 0 .1 0Zm1.5 .8h-.1v-.1q-.1 0-.1 0c0 0-.1 .1-.1 .1h-.2c0 0-.1 0-.1 0q-.1-.1-.1-.1q-.1-.1-.1-.2q0-.1 0-.2c0-.1 0-.2 0-.2c0-.1 0-.2 .1-.2c0-.1 .1-.1 .1-.1q.1 0 .2 0c0 0 .1 0 .1 0q.1 0 .2 0V118h.1Zm-.1-.3v-.5q-.1-.1-.2-.1h-.1q-.1 0-.2 .1c0 .1-.1 .2-.1 .3c0 .1 .1 .2 .1 .3c0 0 .1 0 .2 0c0 0 .1 0 .1 0q.1 0 .2-.1Zm.8 .3c-.1 0-.3 0-.4-.1c0-.1-.1-.2-.1-.4c0-.2 .1-.3 .1-.4c.1-.1 .2-.1 .4-.1c0 0 .1 0 .2 0l.1 .1c0 0 .1 .1 .1 .1q0 .1 0 .2v.1h-.7c0 .1 0 .2 .1 .3c0 0 .1 .1 .2 .1q.1 0 .1-.1q.1 0 .1 0q.1 0 .1 0c0 0 .1 0 .1-.1v.2c0 0-.1 0-.1 0c0 .1-.1 .1-.1 .1H185Zm.2-.6q0-.1 0-.2c0-.1-.1-.1-.1-.1c0 0-.1 0-.1 0q-.1 0-.1 0q-.1 0-.1 .1q-.1 0-.1 .1v.1Zm.5 .6h-.1V118h.1Zm.8 0c-.2 0-.3 0-.4-.1c-.1-.1-.2-.2-.2-.4c0-.2 .1-.3 .2-.4c0-.1 .2-.1 .3-.1q.1 0 .2 0c0 0 .1 0 .1 .1c0 0 .1 .1 .1 .1q0 .1 0 .2v.1h-.7c0 .1 0 .2 .1 .3c.1 0 .1 .1 .3 .1l.1-.1h.1q.1 0 .1-.1v.2h-.1q0 .1-.1 .1q-.1 0-.1 0Zm.1-.6q0-.1 0-.2c0-.1-.1-.1-.1-.1h-.1c0 0-.1 0-.1 0c0 0-.1 0-.1 .1c0 0-.1 0-.1 .1v.1Zm.7 .6c-.1 0-.2 0-.2-.1c-.1 0-.1-.1-.1-.2v-.6h-.1v-.1h.1v-.3h.2v.3h.3v.1h-.3v.5c0 0 0 .1 0 .1c0 0 0 .1 0 .1h.1c0 0 0 .1 .1 .1c0 0 0-.1 0-.1q.1 0 .1 0v.2c0 0-.1 0-.1 0c0 0-.1 0-.1 0Zm.8 0c-.2 0-.3 0-.4-.1c-.1-.1-.1-.2-.1-.4c0-.2 0-.3 .1-.4c.1-.1 .2-.1 .3-.1q.1 0 .2 0q.1 0 .1 .1c.1 0 .1 .1 .1 .1c0 .1 .1 .1 .1 .2v.1h-.8c0 .1 .1 .2 .1 .3c.1 0 .2 .1 .3 .1l.1-.1c0 0 .1 0 .1 0h.1v-.1v.2h-.1q0 .1 0 .1q-.1 0-.1 0q-.1 0-.1 0Zm.2-.6q0-.1 0-.2c0 0-.1 0-.1 0q0-.1-.1-.1H188c0 0-.1 0-.1 0c0 0-.1 0-.1 .1v.1q-.1 0-.1 .1Zm1.1 .6h-.2v-.1c0 0-.1 .1-.1 .1c0 0-.1 0-.1 0h-.1c0 0-.1 0-.1 0q-.1-.1-.1-.1q-.1-.1-.1-.2c0-.1-.1-.1-.1-.2c0-.1 .1-.2 .1-.2c0-.1 0-.2 .1-.2c0-.1 .1-.1 .1-.1q.1 0 .2 0c0 0 .1 0 .1 0q.1 0 .1 0V118h.2Zm-.2-.3v-.5q0-.1-.1-.1c0 0-.1 0-.1 0c-.1 0-.2 0-.2 .1c0 .1-.1 .2-.1 .3c0 .1 0 .2 .1 .3c0 0 .1 0 .2 0c0 0 .1 0 .1 0q.1 0 .1-.1Zm.7 .3h-.2v-.3h.2Zm1.9-1.3l-.4 1.3h-.2l-.5-1.3h.2l.4 1.1l.3-1.1Zm.6 1.3c-.2 0-.3 0-.4-.1c-.1-.1-.1-.2-.1-.4c0-.2 0-.3 .1-.4c.1-.1 .2-.1 .4-.1c0 0 .1 0 .1 0q.1 0 .2 .1c0 0 0 .1 0 .1q.1 .1 .1 .2v.1h-.7c0 .1 0 .2 0 .3c.1 0 .2 .1 .3 .1c0 0 .1 0 .1-.1c0 0 .1 0 .1 0c0 0 .1 0 .1 0v-.1h.1v.2q-.1 0-.1 0c0 .1-.1 .1-.1 .1c0 0-.1 0-.1 0c0 0-.1 0-.1 0Zm.2-.6q0-.1 0-.2h-.1q0-.1 0-.1q-.1 0-.2 0h-.1l-.1 .1v.2Zm.9-.2v0h-.1q-.1 0-.2 0l-.1 .1v.7h-.2v-1h.2v.1c.1 0 .1-.1 .2-.1c0 0 .1 0 .1 0h.1Zm.3 .8h-.2v-1h.2Zm0-1.2h-.2V118h.2Zm.8-.1v0c0 0-.1 0-.1 0c-.1 0-.2 0-.2 .1c0 0-.1 .1-.1 .1v.1h.3v.1h-.2v.9h-.2v-.9H194v-.1h.1v-.1c0-.1 0-.2 .1-.2c0-.1 .1-.1 .2-.1q.1 0 .1 0c0 0 .1 0 .1 0Zm.9 .3l-.6 1.3h-.2l.2-.4l-.4-.9h.2l.3 .7l.3-.7Zm1 1c-.1 0-.2 0-.2-.1c-.1 0-.1-.1-.1-.2v-.6h-.1v-.1h.1v-.3h.2v.3h.3v.1h-.3v.5c0 0 0 .1 0 .1c0 0 0 .1 0 .1h.1c0 0 0 .1 0 .1c.1 0 .1-.1 .1-.1q.1 0 .1 0v.2c0 0-.1 0-.1 0c0 0-.1 0-.1 0Zm1.1 0h-.1v-.6c0 0 0-.1 0-.1c0-.1-.1-.1-.1-.1c0 0 0-.1 0-.1q-.1 0-.1 0q-.1 0-.2 0c0 .1-.1 .1-.1 .1v.8h-.2V118h.2v.5q.1-.1 .1-.1c.1 0 .2 0 .2 0c.1 0 .2 0 .2 0c.1 .1 .1 .2 .1 .3Zm.9-.3v-.2q-.1 0-.2 0q-.1 0-.2 0l-.1 .1v.1c0 0 0 .1 0 .1c.1 0 .1 .1 .2 .1c0 0 .1-.1 .1-.1q.1 0 .2-.1Zm0 .2q-.1 0-.1 0l-.1 .1h-.2c0 0-.1 0-.1 0c0 0-.1-.1-.1-.1c0 0-.1 0-.1-.1c0 0 0-.1 0-.1q0-.1 0-.2c.1 0 .1-.1 .2-.1c0 0 .1 0 .2-.1c.1 0 .2 0 .3 0c0-.1-.1-.1-.1-.1v-.1c0 0-.1 0-.1 0c0 0-.1 0-.1 0c0 0-.1 0-.1 0c-.1 0-.1 .1-.2 .1v-.2c0 0 .1 0 .1 0q.1 0 .2 0q.1 0 .2 0c0 0 .1 0 .1 0q.1 .1 .1 .1q0 .1 0 .2v.7h-.1Zm.7 .1c-.1 0-.2 0-.2-.1c-.1 0-.1-.1-.1-.2v-.6h-.1v-.1h.1v-.3h.2v.3h.3v.1h-.3v.5c0 0 0 .1 0 .1c0 0 0 .1 0 .1c0 0 .1 .1 .1 .1c.1 0 .1-.1 .1-.1h.1v.2q-.1 0-.1 0q-.1 0-.1 0Zm1.2 0c-.1 0-.2 0-.2-.1c-.1 0-.1-.1-.1-.2v-.6H200v-.1h.1v-.3h.2v.3h.3v.1h-.3v.5c0 0 0 .1 0 .1c0 0 0 .1 0 .1h.1c0 0 0 .1 0 .1c.1 0 .1-.1 .1-.1q.1 0 .1 0v.2c0 0-.1 0-.1 0c0 0-.1 0-.1 0Zm1.1 0h-.1v-.6c0 0 0-.1-.1-.1q0-.1 0-.1c0 0 0-.1 0-.1q-.1 0-.1 0q-.1 0-.2 0c0 .1-.1 .1-.1 .1v.8h-.2V118h.2v.5c0-.1 .1-.1 .1-.1q.1 0 .2 0c.1 0 .2 0 .2 0c.1 .1 .1 .2 .1 .3Zm.7 0c-.1 0-.3 0-.4-.1c-.1-.1-.1-.2-.1-.4c0-.2 0-.3 .1-.4c.1-.1 .2-.1 .4-.1c0 0 .1 0 .2 0l.1 .1c0 0 0 .1 .1 .1q0 .1 0 .2v.1h-.7c0 .1 0 .2 .1 .3c0 0 .1 .1 .2 .1q.1 0 .1-.1q.1 0 .1 0q.1 0 .1 0c0 0 .1 0 .1-.1v.2c0 0-.1 0-.1 0c0 .1-.1 .1-.1 .1h-.2Zm.2-.6q0-.1 0-.2q-.1-.1-.1-.1c0 0-.1 0-.1 0q-.1 0-.2 0v.1q-.1 0-.1 .1v.1Zm1.1 .6h-.1V118h.1Zm.5 0h-.2v-1h.2Zm0-1.2h-.2V118h.2Zm1 1.2h-.1v-.6c0 0 0-.1-.1-.1q0-.1 0-.1c0 0 0-.1 0-.1q-.1 0-.1 0q-.1 0-.2 0c0 .1-.1 .1-.1 .1v.8h-.2v-1h.2v.1c0-.1 .1-.1 .2-.1h.1c.1 0 .2 0 .3 0c0 .1 0 .2 0 .3Zm1.1 0h-.2l-.4-.5l-.1 .1v.4h-.1V118h.1v.8l.5-.4h.2l-.5 .4Zm1.6-.5c0 .1-.1 .3-.2 .4c0 0-.1 .1-.3 .1c0 0-.1 0-.1 0c0 0-.1-.1-.1-.1v.4h-.2v-1.3h.2v.1c0-.1 .1-.1 .1-.1q.1 0 .2 0c.1 0 .2 0 .3 .1c0 .1 .1 .2 .1 .4Zm-.2 0c0-.1 0-.2-.1-.3c0-.1-.1-.1-.2-.1h-.1c0 .1-.1 .1-.1 .1v.6c0 0 .1 0 .1 0c0 0 .1 0 .1 0c.1 0 .2 0 .2 0c.1-.1 .1-.2 .1-.3Zm1.2 0c0 .1-.1 .3-.1 .4c-.1 .1-.2 .1-.4 .1c-.1 0-.2 0-.3-.1c-.1-.1-.1-.3-.1-.4c0-.2 0-.3 .1-.4c.1-.1 .2-.1 .3-.1c.2 0 .3 0 .4 .1c0 .1 .1 .2 .1 .4Zm-.2 0c0-.1 0-.2 0-.3c-.1-.1-.2-.1-.3-.1q-.1 0-.2 .1c0 .1 0 .2 0 .3c0 .1 0 .2 0 .3c.1 0 .1 .1 .2 .1c.1 0 .2-.1 .3-.1c0-.1 0-.2 0-.3Zm.5 .5h-.1v-1h.1Zm.1-1.2h-.2V118h.2Zm1 1.2h-.2v-.6c0 0 0-.1 0-.1q0-.1 0-.1c0 0 0-.1 0-.1q-.1 0-.2 0h-.1c0 .1-.1 .1-.1 .1v.8h-.2v-1h.2v.1c0-.1 .1-.1 .1-.1q.1 0 .2 0c.1 0 .2 0 .2 0c.1 .1 .1 .2 .1 .3Zm.6 0c-.1 0-.2 0-.2-.1c-.1 0-.1-.1-.1-.2v-.6h-.1v-.1h.1v-.3h.1v.3h.4v.1h-.4v.5c0 0 0 .1 0 .1c0 0 .1 .1 .1 .1c0 0 .1 .1 .1 .1c0 0 .1-.1 .1-.1h.1v.2q-.1 0-.1 0q-.1 0-.1 0Zm.6 0c-.1 0-.2 0-.2 0c-.1 0-.1-.1-.2-.1v-.2q.1 .1 .1 .1h.2q0 .1 .1 .1h.1q0-.1 0-.1q.1 0 .1 0v-.1c0 0 0-.1 0-.1q-.1 0-.2 0h-.1c0 0 0-.1 0-.1c-.1 0-.2 0-.2-.1c-.1 0-.1-.1-.1-.1c0-.1 .1-.2 .1-.3c.1 0 .2 0 .3 0q.1 0 .2 0q.1 0 .1 0v.2c0 0-.1 0-.1-.1q-.1 0-.2 0q-.1 0-.1 0q-.1 .1-.1 .1q0 .1 0 .1q.1 .1 .2 .1q.1 0 .1 0c.1 0 .2 .1 .2 .1q.1 .1 .1 .2c0 0 0 .1-.1 .1q0 .1 0 .1c-.1 0-.1 .1-.2 .1c0 0-.1 0-.1 0Zm1.4 0q-.1 0-.2-.1c0 0-.1-.1-.1-.2v-.6h-.1v-.1h.1v-.3h.2v.3h.3v.1h-.3v.5c0 0 0 .1 0 .1c0 0 0 .1 0 .1c0 0 .1 0 .1 0c0 0 0 .1 .1 .1c0 0 0-.1 .1-.1v.2h-.2Zm1.2-.5c0 .1 0 .3-.1 .4c-.1 .1-.2 .1-.4 .1c-.1 0-.2 0-.3-.1c-.1-.1-.1-.3-.1-.4c0-.2 0-.3 .1-.4c.1-.1 .2-.1 .3-.1c.2 0 .3 0 .4 .1c.1 .1 .1 .2 .1 .4Zm-.2 0c0-.1 0-.2-.1-.3c0-.1-.1-.1-.2-.1c0 0-.1 0-.2 .1c0 .1 0 .2 0 .3c0 .1 0 .2 0 .3c.1 0 .2 .1 .2 .1c.1 0 .2-.1 .2-.1c.1-.1 .1-.2 .1-.3Zm1.3 .5c-.1 0-.2 0-.2-.1c-.1 0-.1-.1-.1-.2v-.6h-.1v-.1h.1v-.3h.2v.3h.3v.1h-.3v.5c0 0 0 .1 0 .1c0 0 0 .1 0 .1c0 0 .1 .1 .1 .1c0 0 .1-.1 .1-.1c0 0 .1 0 .1 0v.2q-.1 0-.1 0q-.1 0-.1 0Zm1.1 0h-.2v-.6c0 0 0-.1 0-.1q0-.1 0-.1c0 0 0-.1-.1-.1h-.1c0 0-.1 0-.1 0c0 .1-.1 .1-.1 .1v.8h-.2V118h.2v.5c0-.1 .1-.1 .1-.1q.1 0 .2 0c.1 0 .2 0 .2 0c.1 .1 .1 .2 .1 .3Zm.7 0c-.2 0-.3 0-.4-.1c-.1-.1-.1-.2-.1-.4c0-.2 0-.3 .1-.4c.1-.1 .2-.1 .4-.1c0 0 .1 0 .1 0q.1 0 .2 .1c0 0 0 .1 0 .1q.1 .1 .1 .2v.1h-.7c0 .1 0 .2 0 .3c.1 0 .2 .1 .3 .1c0 0 .1 0 .1-.1c0 0 .1 0 .1 0c0 0 .1 0 .1 0v-.1h.1v.2q-.1 0-.1 0c0 .1-.1 .1-.1 .1c0 0-.1 0-.1 0c0 0-.1 0-.1 0Zm.2-.6q0-.1 0-.2h-.1q0-.1 0-.1q-.1 0-.2 0h-.1l-.1 .1v.2Zm1.3 .6c0 0-.1 0-.1 0c-.1-.1-.2-.1-.2-.1c0-.1-.1-.1-.1-.2q0-.1 0-.2c0-.1 0-.2 0-.2c0-.1 .1-.2 .1-.2c0-.1 .1-.1 .2-.1c0 0 .1 0 .1 0c.1 0 .2 0 .2 0q.1 0 .2 0v.2h-.1c0 0-.1 0-.1 0q0-.1-.1-.1h-.1c0 0-.1 0-.2 .1c0 .1-.1 .2-.1 .3c0 .1 .1 .2 .1 .3c.1 0 .1 .1 .2 .1c.1 0 .2-.1 .2-.1c0 0 .1 0 .1-.1h.1v.2q-.1 0-.1 0c0 .1-.1 .1-.1 .1h-.2Zm1.3-.5c0 .1 0 .3-.1 .4c0 .1-.2 .1-.3 .1c-.1 0-.3 0-.3-.1c-.1-.1-.2-.3-.2-.4c0-.2 .1-.3 .2-.4c0-.1 .2-.1 .3-.1c.1 0 .3 0 .3 .1c.1 .1 .1 .2 .1 .4Zm-.1 0c0-.1 0-.2-.1-.3c0-.1-.1-.1-.2-.1c-.1 0-.2 0-.2 .1c-.1 .1-.1 .2-.1 .3c0 .1 0 .2 .1 .3c0 0 .1 .1 .2 .1c.1 0 .2-.1 .2-.1c.1-.1 .1-.2 .1-.3Zm.9-.3v0c0 0-.1 0-.1 0q-.1 0-.2 0c0 0-.1 0-.1 .1v.7h-.2v-1h.2v.1c.1 0 .1-.1 .2-.1c0 0 .1 0 .1 0h.1Zm.7 0v0q-.1 0-.1 0q-.1 0-.2 0c0 0-.1 0-.1 .1v.7h-.2v-1h.2v.1c0 0 .1-.1 .2-.1h.1c0 0 .1 0 .1 0Zm.5 .8c-.1 0-.3 0-.3-.1c-.1-.1-.2-.2-.2-.4c0-.2 .1-.3 .2-.4c0-.1 .2-.1 .3-.1q.1 0 .2 0c0 0 .1 0 .1 .1c0 0 .1 .1 .1 .1q0 .1 0 .2v.1h-.7c0 .1 0 .2 .1 .3c.1 0 .1 .1 .2 .1q.1 0 .2-.1q.1 0 .1 0q.1 0 .1-.1v.2c0 0-.1 0-.1 0q0 .1-.1 .1h-.2Zm.2-.6q0-.1 0-.2c0-.1-.1-.1-.1-.1c0 0-.1 0-.1 0q-.1 0-.1 0q-.1 0-.1 .1c0 0-.1 0-.1 .1v.1Zm.8 .6q-.1 0-.2 0q-.1-.1-.2-.1q0-.1 0-.2q-.1-.1-.1-.2c0-.1 0-.2 .1-.2c0-.1 0-.2 0-.2q.1-.1 .2-.1q.1 0 .2 0q.1 0 .2 0c0 0 .1 0 .1 0v.2h-.1c0-.1-.1-.1-.1-.1c0 0-.1 0-.1 0c-.1 0-.2 0-.2 .1c-.1 .1-.1 .2-.1 .3c0 .1 0 .2 .1 .3c0 0 .1 .1 .2 .1c0 0 .1-.1 .2-.1c0 0 .1 0 .1-.1v.2h-.1q0 .1 0 .1q-.1 0-.1 0c0 0-.1 0-.1 0Zm.8 0c-.1 0-.2 0-.3-.1c0 0 0-.1 0-.2v-.6h-.2v-.1h.2v-.3h.1v.3h.4v.1h-.4v.5c0 0 0 .1 0 .1c.1 0 .1 .1 .1 .1c0 0 .1 .1 .1 .1c0 0 .1-.1 .1-.1h.1v.2q-.1 0-.1 0q-.1 0-.1 0Zm1.4-1.3v0q-.1 0-.1 0c-.1 0-.2 0-.2 .1c0 0 0 .1 0 .1v.1h.3v.1h-.3v.9h-.2v-.9h-.1v-.1h.1v-.1c0-.1 0-.2 .1-.2c0-.1 .1-.1 .2-.1q.1 0 .1 0q.1 0 .1 0Zm.3 1.3h-.2v-1h.2Zm0-1.2h-.2V118h.2Zm.4 1.2h-.2V118h.2Zm.7 0c-.2 0-.3 0-.4-.1c-.1-.1-.1-.2-.1-.4c0-.2 0-.3 .1-.4c.1-.1 .2-.1 .4-.1c0 0 .1 0 .1 0q.1 0 .1 .1c.1 0 .1 .1 .1 .1q.1 .1 .1 .2v.1h-.7c0 .1 0 .2 0 .3c.1 0 .2 .1 .3 .1c0 0 .1 0 .1-.1c0 0 .1 0 .1 0c0 0 .1 0 .1 0v-.1v.2q-.1 .1-.1 .1c0 0-.1 0-.1 0c0 0-.1 0-.1 0Zm.2-.6q0-.1 0-.2h-.1q0-.1 0-.1q-.1 0-.2 0H226l-.1 .1v.2Zm1.5 .3v-.2c0 0-.1 0-.2 0c0 0-.1 0-.1 0q-.1 0-.1 .1c0 0-.1 0-.1 .1c0 0 .1 .1 .1 .1c0 0 .1 .1 .1 .1c.1 0 .1-.1 .2-.1c0 0 .1 0 .1-.1Zm0 .2q-.1 0-.1 .1q-.1 0-.1 0c0 0-.1 0-.1 0q-.1 0-.2 0c0 0 0-.1-.1-.1v-.1c0 0 0-.1 0-.1q0-.1 0-.2c0 0 .1-.1 .1-.1c.1 0 .2 0 .3-.1c0 0 .1 0 .2 0q0-.1 0-.1l-.1-.1h-.1q-.1 0-.2 0c0 0-.1 .1-.2 .1v-.2q.1 0 .2 0c0 0 .1 0 .2 0c0 0 .1 0 .1 0q.1 0 .2 0q0 .1 .1 .1q0 .1 0 .2v.7h-.2Zm1.2 .1H229v-.6c0 0 0-.1 0-.1q-.1-.1-.1-.1c0 0 0-.1 0-.1q-.1 0-.1 0q-.1 0-.2 0c0 .1-.1 .1-.1 .1v.8h-.2v-1h.2v.1c0-.1 .1-.1 .1-.1c.1 0 .2 0 .2 0c.1 0 .2 0 .2 0c.1 .1 .1 .2 .1 .3Zm1.1 0H230v-.1c0 0-.1 0-.1 0c0 0 0 .1 0 .1q-.1 0-.1 0q-.1 0-.1 0q-.1 0-.2 0c0-.1-.1-.1-.1-.1c0-.1-.1-.1-.1-.2q0-.1 0-.2c0-.1 0-.2 0-.2c.1-.1 .1-.2 .1-.2q.1-.1 .2-.1c0 0 .1 0 .1 0q.1 0 .2 0h.1V118h.2Zm-.2-.3v-.5q-.1-.1-.1-.1q-.1 0-.1 0c-.1 0-.2 0-.3 .1c0 .1 0 .2 0 .3c0 .1 0 .2 0 .3q.1 0 .2 0q.1 0 .2 0l.1-.1Zm1.2 .3H231V118h.2Zm1.1-.5c0 .1-.1 .3-.1 .4c-.1 .1-.2 .1-.4 .1c-.1 0-.2 0-.3-.1c-.1-.1-.1-.3-.1-.4c0-.2 0-.3 .1-.4c.1-.1 .2-.1 .3-.1c.2 0 .3 0 .4 .1c0 .1 .1 .2 .1 .4Zm-.2 0c0-.1 0-.2-.1-.3c0-.1-.1-.1-.2-.1q-.1 0-.2 .1c0 .1-.1 .2-.1 .3c0 .1 .1 .2 .1 .3c.1 0 .1 .1 .2 .1c.1 0 .2-.1 .2-.1c.1-.1 .1-.2 .1-.3Zm.8 .5c-.1 0-.2 0-.2 0q-.1-.1-.2-.1q0-.1-.1-.2q0-.1 0-.2c0-.1 0-.2 0-.2c.1-.1 .1-.2 .1-.2q.1-.1 .2-.1c0 0 .1 0 .2 0c0 0 .1 0 .1 0q.1 0 .2 0v.2c0 0-.1 0-.1 0H233q0-.1 0-.1q-.1 0-.1 0c-.1 0-.2 0-.2 .1c-.1 .1-.1 .2-.1 .3c0 .1 0 .2 .1 .3c0 0 .1 .1 .2 .1c0 0 .1-.1 .1-.1q.1 0 .2-.1v.2c0 0-.1 0-.1 0q0 .1-.1 .1q-.1 0-.1 0Zm1-.3v-.2c0 0-.1 0-.1 0c-.1 0-.2 0-.2 0c0 0-.1 0-.1 .1c0 0-.1 0-.1 .1c0 0 .1 .1 .1 .1c0 0 .1 .1 .1 .1c.1 0 .1-.1 .2-.1c0 0 .1 0 .1-.1Zm0 .2q-.1 0-.1 .1c0 0-.1 0-.1 0c0 0-.1 0-.1 0q-.1 0-.1 0c-.1 0-.1-.1-.1-.1q-.1 0-.1-.1c0 0 0-.1 0-.1q0-.1 0-.2c0 0 .1-.1 .1-.1c.1 0 .2 0 .3-.1c0 0 .1 0 .2 0q0-.1 0-.1l-.1-.1q-.1 0-.1 0q-.1 0-.2 0c0 0-.1 .1-.1 .1h-.1v-.2q.1 0 .2 0c0 0 .1 0 .2 0c0 0 .1 0 .1 0q.1 0 .2 0q0 .1 .1 .1q0 .1 0 .2v.7h-.2Zm.7 .1q-.1 0-.2-.1c0 0-.1-.1-.1-.2v-.6h-.1v-.1h.1v-.3h.2v.3h.3v.1h-.3v.5c0 0 0 .1 0 .1c0 0 0 .1 0 .1c0 0 .1 0 .1 0c0 0 0 .1 .1 .1c0 0 0-.1 .1-.1v.2h-.2Zm.5 0H235v-1h.1Zm0-1.2h-.2V118h.2Zm1.1 .7c0 .1 0 .3-.1 .4c-.1 .1-.2 .1-.3 .1c-.2 0-.3 0-.4-.1c0-.1-.1-.3-.1-.4c0-.2 .1-.3 .1-.4c.1-.1 .2-.1 .4-.1c.1 0 .2 0 .3 .1c.1 .1 .1 .2 .1 .4Zm-.1 0c0-.1-.1-.2-.1-.3q-.1-.1-.2-.1c-.1 0-.2 0-.2 .1c-.1 .1-.1 .2-.1 .3c0 .1 0 .2 .1 .3c0 0 .1 .1 .2 .1c.1 0 .1-.1 .2-.1c0-.1 .1-.2 .1-.3Zm1.1 .5h-.1v-.6c0 0 0-.1-.1-.1q0-.1 0-.1c0 0 0-.1 0-.1q-.1 0-.1 0q-.1 0-.2 0c0 .1-.1 .1-.1 .1v.8h-.2v-1h.2v.1c0-.1 .1-.1 .1-.1q.1 0 .2 0c.1 0 .2 0 .2 0c.1 .1 .1 .2 .1 .3Zm.5 0h-.2v-.3h.2Z" class="g0_736"/>
<path d="M83.1 630.6V110.5H473.8m0 0V630.6H83.1" class="g1_736"/>
</svg>