<svg viewBox="0 0 935 1210" version="1.1" xmlns="http://www.w3.org/2000/svg">
<defs>
<clipPath id="c0_1399"><path d="M109.7 1100.3V109.7H825.3v990.6Z"/></clipPath>
<style>
.g0_1399{fill:#FFF;}
.g1_1399{fill:#000;}
</style>
</defs>
<path clip-path="url(#c0_1399)" d="M110-879.9H825V6160H110V-879.9Z" class="g0_1399"/>
<path d="M292.2 630.2H818.1v1.2H292.2v-1.2Z" class="g1_1399"/>
<path d="M817 535.1h1.1v96.3H817V535.1Z" class="g1_1399"/>
<path d="M118 630.2H293.3v1.2H118v-1.2Z" class="g1_1399"/>
<path d="M118 535.1h1.2v96.3H118V535.1Z" class="g1_1399"/>
<path d="M292.2 535.1h1.1v96.3h-1.1V535.1Z" class="g1_1399"/>
<path d="M292.2 535.1H818.1v1.2H292.2v-1.2Z" class="g1_1399"/>
<path d="M817 385h1.1V536.3H817V385Z" class="g1_1399"/>
<path d="M118 535.1H293.3v1.2H118v-1.2Z" class="g1_1399"/>
<path d="M118 385h1.2V536.3H118V385Z" class="g1_1399"/>
<path d="M292.2 385h1.1V536.3h-1.1V385Z" class="g1_1399"/>
<path d="M292.2 385H818.1v1.1H292.2V385Z" class="g1_1399"/>
<path d="M817 234.9h1.1V386.1H817V234.9Z" class="g1_1399"/>
<path d="M118 385H293.3v1.1H118V385Z" class="g1_1399"/>
<path d="M118 234.9h1.2V386.1H118V234.9Z" class="g1_1399"/>
<path d="M292.2 234.9h1.1V386.1h-1.1V234.9Z" class="g1_1399"/>
<path d="M292.2 112.3H818.1v1.1H292.2v-1.1Z" class="g1_1399"/>
<path d="M292.2 234.9H818.1V236H292.2v-1.1Z" class="g1_1399"/>
<path d="M817 112.3h1.1V236H817V112.3Z" class="g1_1399"/>
<path d="M118 112.3H293.3v1.1H118v-1.1Z" class="g1_1399"/>
<path d="M118 234.9H293.3V236H118v-1.1Z" class="g1_1399"/>
<path d="M118 112.3h1.2V236H118V112.3Z" class="g1_1399"/>
<path d="M292.2 112.3h1.1V236h-1.1V112.3Z" class="g1_1399"/>
<path d="M292.2 112.3H818.1v1.1H292.2v-1.1Z" class="g1_1399"/>
<path d="M118 112.3H293.3v1.1H118v-1.1Z" class="g1_1399"/>
</svg>