<svg viewBox="0 0 909 1286" version="1.1" xmlns="http://www.w3.org/2000/svg">
<defs>
<style>
.g0_998{fill:#000;}
.g1_998{fill:none;stroke:#000;stroke-width:1.099;stroke-miterlimit:10;}
</style>
</defs>
<image preserveAspectRatio="none" x="90" y="118" width="16" height="17" href="img/1.jpg"/>
<path fill-rule="evenodd" d="M113 119.5v-1.1h-.5v-.2h1.1v.2h-.5v1.1Zm1.5 0h-.1V119q0-.1 0-.2c0 0-.1 0-.1-.1c0 0-.1 0-.1 0q-.1 0-.2 0c0 0 0 .1-.1 .1v.7h-.2v-1.4h.2v.5q.1 0 .2-.1c0 0 .1 0 .1 0c.1 0 .2 0 .3 .1c0 .1 0 .2 0 .3Zm.7 .1c-.1 0-.3-.1-.3-.2c-.1-.1-.2-.2-.2-.4c0-.1 .1-.2 .1-.4c.1 0 .2-.1 .4-.1q.1 0 .2 0c0 .1 .1 .1 .1 .1c0 .1 .1 .1 .1 .2c0 0 0 .1 0 .2h-.7c0 .2 0 .3 .1 .3c0 .1 .1 .1 .2 .1q.1 0 .1 0q.1 0 .1 0q.1-.1 .1-.1c0 0 .1 0 .1 0v.2c0 0-.1 0-.1 0h-.2c0 0 0 .1-.1 .1Zm.2-.7c0 0 0-.1 0-.1c0 0 0-.1 0-.1c0 0-.1 0-.1 0c0-.1-.1-.1-.1-.1q-.1 0-.1 .1q-.1 0-.1 0q-.1 .1-.1 .1c0 0 0 .1 0 .1Zm1.1 .6h-.1v-1.4h.1Zm.5 0h-.2v-1h.2Zm0-1.1h-.2v-.2h.2Zm1 1.1h-.1V119q0-.1 0-.2c0 0-.1 0-.1-.1c0 0-.1 0-.1 0q-.1 0-.2 0c0 0-.1 .1-.1 .1v.7h-.2v-1h.2v.1q.1 0 .2-.1c0 0 .1 0 .1 0c.1 0 .2 0 .3 .1c0 .1 0 .2 0 .3Zm1.1 0h-.2l-.4-.5v.5h-.2v-1.4h.2v.9l.4-.5h.2l-.4 .5Zm.6 .1c-.2 0-.3-.1-.4-.2c-.1-.1-.1-.2-.1-.4c0-.1 0-.2 .1-.4c.1 0 .2-.1 .3-.1c.1 0 .2 0 .2 0q.1 .1 .1 .1q.1 .1 .1 .2c0 0 0 .1 0 .2h-.7c0 .2 .1 .3 .1 .3c.1 .1 .2 .1 .3 .1h.1c0 0 .1 0 .1 0q0-.1 .1-.1v.2q-.1 0-.1 0q-.1 0-.1 0c0 0-.1 .1-.1 .1Zm.2-.7c0 0 0-.1 0-.1c-.1 0-.1-.1-.1-.1h-.1q0-.1-.1-.1c0 0-.1 0-.1 .1c0 0-.1 0-.1 0q0 .1 0 .1c-.1 0-.1 .1-.1 .1Zm1.1 .6h-.2v-.1q0 .1 0 .1q-.1 0-.1 0h-.1q0 .1-.1 .1c0 0-.1-.1-.1-.1q-.1 0-.1-.1c-.1 0-.1-.1-.1-.1c0-.1-.1-.2-.1-.3c0 0 .1-.1 .1-.2c0 0 0-.1 .1-.2c0 0 .1 0 .1-.1q.1 0 .2 0c0 0 .1 0 .1 0c.1 0 .1 .1 .1 .1v-.5h.2Zm-.2-.2v-.6h-.2q-.1 0-.2 .1c0 0-.1 .1-.1 .2q0 .2 .1 .3c0 .1 .1 .1 .2 .1c0 0 .1 0 .1 0q.1-.1 .1-.1Zm1.2 .2h-.1v-1h.1Zm0-1.1h-.2v-.2h.2Zm1.5 1.1V119q0-.1-.1-.2v-.1c0 0-.1 0-.1 0q-.1 0-.1 0c-.1 0-.1 .1-.2 .1c0 0 0 .1 0 .1v.6h-.1V119q0-.1 0-.2l-.1-.1c0 0-.1 0-.1 0c0 0-.1 0-.1 0c-.1 0-.1 .1-.1 .1v.7h-.2v-1h.2v.1l.1-.1c0 0 .1 0 .1 0c.1 0 .2 0 .2 0c0 .1 .1 .1 .1 .2q.1-.1 .2-.1c0-.1 .1-.1 .1-.1q.1 0 .1 0c.1 0 .1 .1 .1 .1c.1 0 .1 .1 .1 .1q0 .1 0 .2v.6Zm.9-.2V119h-.1q-.1 0-.2 0q0 .1-.1 .1c0 0 0 .1 0 .1q0 .1 0 .2q.1 0 .2 0c0 0 .1 0 .1 0q.1-.1 .1-.1Zm0 .1c0 0 0 .1 0 .1c0 0-.1 0-.1 0h-.1q0 .1-.1 .1c0 0-.1-.1-.1-.1c0 0-.1 0-.1 0c0-.1-.1-.1-.1-.1q0-.1 0-.2c0 0 0-.1 0-.1q.1-.1 .2-.1c0-.1 .1-.1 .2-.1c.1 0 .2 0 .2 0v-.1q0-.1 0-.1c0 0-.1 0-.1 0c0 0-.1 0-.1 0c0 0-.1 0-.1 0c-.1 0-.2 0-.2 0v-.1c0-.1 .1-.1 .1-.1q.1 0 .2 0q.1 0 .2 0c0 0 .1 .1 .1 .1c0 0 .1 0 .1 .1c0 0 0 .1 0 .1v.7h-.2Zm1.1-.1v-.6q-.1 0-.1 0q-.1 0-.1 0c-.1 0-.2 0-.3 .1c0 0 0 .1 0 .2c0 .1 0 .2 0 .3c.1 0 .1 .1 .2 .1c.1 0 .1-.1 .2-.1h.1Zm-.6 .4h.1q.1 0 .1 .1c0 0 .1 0 .1 0q.1 0 .1-.1q.1 0 .1 0c0 0 .1-.1 .1-.1c0 0 0-.1 0-.1v-.1c-.1 0-.1 .1-.2 .1c0 0-.1 0-.1 0c-.1 0-.2 0-.3-.1c-.1-.1-.1-.2-.1-.4q0-.1 0-.2q.1-.1 .1-.2q.1 0 .2-.1c0 0 .1 0 .1 0q.1 0 .2 0c0 0 0 .1 .1 .1v-.1h.2v.9c0 .2-.1 .3-.2 .4c0 .1-.2 .1-.3 .1q-.1 0-.2 0c0 0-.1 0-.1 0v-.2Zm1.5-.1c-.2 0-.3-.1-.4-.2c-.1-.1-.2-.2-.2-.4c0-.1 .1-.2 .2-.4c.1 0 .2-.1 .3-.1q.1 0 .2 0c0 .1 .1 .1 .1 .1c0 .1 .1 .1 .1 .2c0 0 0 .1 0 .2H126c0 .2 0 .3 .1 .3q.1 .1 .3 .1h.2q0-.1 0-.1q.1 0 .1 0v.2h-.2c-.1 0-.1 .1-.1 .1Zm.2-.7c0 0-.1-.1-.1-.1c0 0 0-.1 0-.1h-.1c0-.1-.1-.1-.1-.1c0 0-.1 0-.1 .1c0 0-.1 0-.1 0q0 .1-.1 .1c0 0 0 .1 0 .1Zm1.3 .7c-.1 0-.1-.1-.2-.1q-.1 0-.1-.1c-.1 0-.1-.1-.1-.1c-.1-.1-.1-.2-.1-.3c0 0 0-.1 .1-.2q0-.1 .1-.2l.1-.1q.1 0 .2 0q.1 0 .2 0c0 .1 .1 .1 .1 .1v.2l-.1-.1c0 0-.1 0-.1 0c0 0-.1 0-.1 0c-.1 0-.2 0-.2 .1c-.1 0-.1 .1-.1 .2q0 .2 .1 .3c0 .1 .1 .1 .2 .1q.1 0 .2 0c0-.1 .1-.1 .1-.1v.2h-.1q-.1 0-.1 0c0 0-.1 .1-.1 .1Zm1-.3V119c0 0-.1 0-.1 0q-.1 0-.2 0c0 .1-.1 .1-.1 .1c0 0 0 .1 0 .1q0 .1 0 .2q.1 0 .2 0c0 0 .1 0 .1 0q.1-.1 .1-.1Zm0 .1c0 0 0 .1 0 .1c0 0-.1 0-.1 0h-.1q0 .1-.1 .1c0 0-.1-.1-.1-.1q-.1 0-.1 0c0-.1-.1-.1-.1-.1q0-.1 0-.2c0 0 0-.1 0-.1q.1-.1 .2-.1c0-.1 .1-.1 .2-.1q.1 0 .2 0v-.1q0-.1 0-.1q-.1 0-.1 0c0 0-.1 0-.1 0q-.1 0-.2 0c0 0-.1 0-.1 0v-.1c0-.1 .1-.1 .1-.1q.1 0 .2 0q.1 0 .2 0c0 0 .1 .1 .1 .1c0 0 .1 0 .1 .1c0 0 0 .1 0 .1v.7h-.2Zm1.3 .1H130V119q0-.1 0-.2v-.1q-.1 0-.1 0c0 0-.1 0-.1 0q-.1 0-.1 0c-.1 0-.1 .1-.2 .1v.7h-.1v-1h.1v.1q.1 0 .2-.1c0 0 .1 0 .1 0c.1 0 .2 0 .3 .1c0 .1 .1 .2 .1 .3Zm1 0H131V119q0-.1 0-.2v-.1h-.3c0 0-.1 .1-.1 .1v.7h-.2v-1h.2v.1c0 0 .1 0 .1-.1q.1 0 .2 0c.1 0 .2 0 .2 .1c.1 .1 .1 .2 .1 .3Zm1.1-.5c0 .2 0 .3-.1 .4c-.1 .1-.2 .2-.4 .2c-.1 0-.2-.1-.3-.2c-.1-.1-.1-.2-.1-.4c0-.1 0-.3 .1-.4c.1 0 .2-.1 .3-.1c.2 0 .3 .1 .4 .1c.1 .1 .1 .3 .1 .4Zm-.2 0c0-.1 0-.2 0-.3c-.1 0-.2-.1-.3-.1c0 0-.1 .1-.2 .1c0 .1 0 .2 0 .3c0 .2 0 .3 0 .3c.1 .1 .2 .1 .2 .1c.1 0 .2 0 .3-.1c0 0 0-.1 0-.3Zm.7 .5c-.1 0-.2 0-.2 0c-.1-.1-.1-.2-.1-.3v-.5h-.1v-.2h.1v-.3h.2v.3h.3v.2h-.3v.6q0 .1 0 .1q.1 0 .1 0q.1 0 .1 0c0 0 .1 0 .1 0v.1c0 0-.1 0-.1 0c0 0-.1 0-.1 0Zm1.6-.5c0-.1 0-.2-.1-.2c0-.1-.1-.1-.1-.1q-.1 0-.2 0c0 0-.1 .1-.1 .1v.5c0 .1 .1 .1 .1 .1c0 0 .1 0 .1 0c.1 0 .2 0 .2-.1c.1 0 .1-.1 .1-.3Zm.2 0c0 .2-.1 .3-.2 .4c0 .1-.1 .2-.3 .2c0 0-.1-.1-.1-.1c0 0-.1 0-.1 0h-.2v-1.4h.2v.5c0 0 .1 0 .1-.1q.1 0 .2 0c.1 0 .2 .1 .3 .1c0 .1 .1 .3 .1 .4Zm.6 .6c-.2 0-.3-.1-.4-.2c-.1-.1-.1-.2-.1-.4c0-.1 0-.2 .1-.4c.1 0 .2-.1 .4-.1c0 0 .1 0 .1 0q.1 .1 .2 .1q0 .1 0 .2c.1 0 .1 .1 .1 .2h-.7c0 .2 0 .3 0 .3c.1 .1 .2 .1 .3 .1c0 0 .1 0 .1 0c0 0 .1 0 .1 0c0-.1 .1-.1 .1-.1v.2q-.1 0-.1 0c0 0-.1 0-.1 0c0 0-.1 .1-.1 .1Zm.2-.7c0 0 0-.1 0-.1c0 0 0-.1-.1-.1q-.1-.1-.2-.1l-.1 .1h-.1q0 .1 0 .1c0 0 0 .1 0 .1Zm1.7 .6H137v-.1q-.1 .1-.1 .1c0 0-.1 0-.1 0h-.1q0 .1-.1 .1c0 0-.1-.1-.1-.1q-.1 0-.1-.1c-.1 0-.1-.1-.1-.1c0-.1 0-.2 0-.3c0 0 0-.1 0-.2c0 0 .1-.1 .1-.2c0 0 .1 0 .1-.1q.1 0 .2 0c0 0 .1 0 .1 0c.1 0 .1 .1 .2 .1v-.5h.1Zm-.1-.2v-.6q-.1 0-.2 0h-.1q-.1 0-.2 .1c0 0-.1 .1-.1 .2c0 .2 .1 .2 .1 .3c0 .1 .1 .1 .2 .1c0 0 .1 0 .1 0q.1-.1 .2-.1Zm.6 .2h-.2v-1h.2Zm0-1.1h-.2v-.2h.2Zm.5 1.2c-.1 0-.1-.1-.2-.1q-.1 0-.2 0v-.2h.1c0 0 .1 0 .1 .1h.1c0 0 .1 0 .1 0h.2c0 0 0-.1 0-.1q0-.1 0-.1c0 0-.1-.1-.1-.1q-.1 0-.1 0q-.1 0-.1 0c-.1 0-.2-.1-.2-.1c0-.1-.1-.1-.1-.2c0-.1 .1-.2 .2-.2c0-.1 .1-.1 .2-.1q.1 0 .2 0c.1 0 .1 .1 .2 .1v.2h-.1c0-.1-.1-.1-.1-.1c-.1 0-.1-.1-.2-.1c0 0-.1 .1-.1 .1q-.1 0-.1 .1c0 0 0 .1 .1 .1h.1c0 0 0 .1 .1 .1h.1c0 0 .1 0 .1 .1c.1 0 .1 .1 .1 .1q0 .1 0 .2q-.1 0-.1 .1q-.1 0-.1 0c-.1 0-.1 .1-.2 .1Zm1.4-.6c0 .2 0 .3-.1 .4c-.1 .1-.2 .1-.3 .1q-.1 0-.2 0h-.1v.4h-.2v-1.4h.2v.1q.1 0 .2-.1c0 0 .1 0 .1 0c.2 0 .2 .1 .3 .1c.1 .1 .1 .3 .1 .4Zm-.2 0c0-.1 0-.2 0-.2q-.1-.1-.2-.1q-.1 0-.1 0c-.1 0-.1 .1-.2 .1v.5q.1 .1 .1 .1q.1 0 .2 0c0 0 .1 0 .2-.1q0-.1 0-.3Zm.6 .5h-.2v-1.4h.2Zm.8-.2V119c0 0-.1 0-.2 0c0 0-.1 0-.1 0q-.1 .1-.1 .1c-.1 0-.1 .1-.1 .1q0 .1 .1 .2c0 0 .1 0 .1 0q.1 0 .2 0c0-.1 .1-.1 .1-.1Zm0 .1c0 0 0 .1-.1 .1q-.1 0-.1 0c0 .1-.1 .1-.1 .1c-.1 0-.1-.1-.2-.1h-.1q0-.1 0-.1q0-.1 0-.2c0 0 0-.1 0-.1c0-.1 .1-.1 .1-.1c.1-.1 .2-.1 .2-.1c.1 0 .2 0 .3 0v-.1q0-.1-.1-.1h-.1q-.1 0-.2 0c0 0-.1 0-.2 0v-.1q.1-.1 .2-.1c0 0 .1 0 .2 0c0 0 .1 0 .1 0c.1 0 .1 .1 .2 .1v.1c.1 0 .1 .1 .1 .1v.7h-.2Zm1.2-.9l-.5 1.4h-.2l.2-.4l-.4-1h.2l.3 .8l.2-.8Zm.6 1.1c-.2 0-.3-.1-.4-.2c-.1-.1-.1-.2-.1-.4c0-.1 0-.2 .1-.4c.1 0 .2-.1 .4-.1c0 0 .1 0 .1 0q.1 .1 .2 .1q0 .1 0 .2c.1 0 .1 .1 .1 .2h-.7c0 .2 0 .3 .1 .3c0 .1 .1 .1 .2 .1c0 0 .1 0 .1 0q.1 0 .1 0c0-.1 .1-.1 .1-.1h.1v.2q-.1 0-.1 0q-.1 0-.1 0c0 0-.1 0-.1 0c0 0-.1 .1-.1 .1Zm.2-.7c0 0 0-.1 0-.1c0 0 0-.1-.1-.1q-.1-.1-.1-.1q-.1 0-.2 .1h-.1q0 .1 0 .1c0 0 0 .1 0 .1Zm1.1 .6h-.1v-.1q-.1 .1-.1 .1h-.1q-.1 .1-.1 .1c-.1 0-.1-.1-.2-.1c0 0-.1 0-.1-.1c0 0-.1-.1-.1-.1c0-.1 0-.2 0-.3c0 0 0-.1 0-.2c0 0 .1-.1 .1-.2c0 0 .1 0 .1-.1c.1 0 .2 0 .2 0q.1 0 .1 0c.1 0 .1 .1 .2 .1v-.5h.1Zm-.1-.2v-.6q-.1 0-.1 0q-.1 0-.2 0c0 0-.1 0-.2 .1c0 0 0 .1 0 .2q0 .2 0 .3q.1 .1 .2 .1c0 0 .1 0 .1 0q.1-.1 .2-.1Zm.7 .2h-.3v-.2h.3Zm1.8 0v-1.1h-.5v-.2h1.1v.2h-.4v1.1Zm1.6 0h-.2V119q0-.1 0-.2v-.1q-.1 0-.1 0c0 0-.1 0-.1 0q-.1 0-.1 0c-.1 0-.1 .1-.2 .1v.7h-.2v-1.4h.2v.5q.1 0 .2-.1c0 0 .1 0 .1 0c.1 0 .2 0 .3 .1c0 .1 .1 .2 .1 .3Zm.6 .1c-.1 0-.2-.1-.3-.2c-.1-.1-.2-.2-.2-.4c0-.1 .1-.2 .2-.4c.1 0 .2-.1 .3-.1q.1 0 .2 0c0 .1 .1 .1 .1 .1c0 .1 .1 .1 .1 .2c0 0 0 .1 0 .2h-.7c0 .2 0 .3 .1 .3q.1 .1 .2 .1q.1 0 .2 0h.1q0-.1 0-.1q.1 0 .1 0v.2h-.2c-.1 0-.1 .1-.2 .1Zm.3-.7c-.1 0-.1-.1-.1-.1c0 0 0-.1 0-.1c0 0-.1 0-.1 0c0-.1-.1-.1-.1-.1c0 0-.1 0-.1 .1q-.1 0-.1 0c0 .1-.1 .1-.1 .1c0 0 0 .1 0 .1Zm1.4-.6v0q-.1 0-.1 0c-.1 0-.2 0-.2 0q0 .1 0 .2h.3v.2h-.3v.8h-.2v-.8h-.1v-.2h.1c0-.1 0-.2 .1-.3c.1 0 .1-.1 .2-.1q.1 0 .1 0q.1 0 .1 0Zm.3 1.2h-.2v-1h.2Zm0-1.1h-.2v-.2h.2Zm.4 1.1h-.2v-1.4h.2Zm.7 .1c-.2 0-.3-.1-.4-.2c-.1-.1-.1-.2-.1-.4c0-.1 0-.2 .1-.4c.1 0 .2-.1 .4-.1c0 0 .1 0 .1 0q.1 .1 .2 .1q0 .1 0 .2c.1 0 .1 .1 .1 .2h-.7c0 .2 0 .3 0 .3c.1 .1 .2 .1 .3 .1c0 0 .1 0 .1 0c0 0 .1 0 .1 0c0-.1 .1-.1 .1-.1v.2q-.1 0-.1 0c0 0-.1 0-.1 0c0 0-.1 .1-.1 .1Zm.2-.7c0 0 0-.1 0-.1c0 0 0-.1-.1-.1q-.1-.1-.2-.1l-.1 .1h-.1q0 .1 0 .1c0 0 0 .1 0 .1Zm2.1 .6V119q0-.1 0-.2v-.1c0 0-.1 0-.1 0h-.2c0 0-.1 .1-.1 .1c0 0 0 .1 0 .1v.6h-.2V119q0-.1 0-.2v-.1h-.3c0 0-.1 .1-.1 .1v.7h-.2v-1h.2v.1q.1 0 .1-.1q.1 0 .2 0c0 0 .1 0 .2 0q0 .1 .1 .2c0-.1 .1-.1 .1-.1q.1-.1 .2-.1c0 0 .1 0 .1 0c0 0 .1 .1 .1 .1c0 0 0 .1 .1 .1q0 .1 0 .2v.6Zm1-.2V119q-.1 0-.2 0c0 0-.1 0-.1 0q-.1 .1-.1 .1c-.1 0-.1 .1-.1 .1q0 .1 .1 .2c0 0 .1 0 .1 0q.1 0 .2 0q0-.1 .1-.1Zm0 .1c0 0 0 .1-.1 .1q-.1 0-.1 0c0 .1-.1 .1-.1 .1c-.1 0-.1-.1-.2-.1h-.1q0-.1 0-.1q0-.1 0-.2c0 0 0-.1 0-.1c0-.1 .1-.1 .1-.1c.1-.1 .2-.1 .2-.1c.1 0 .2 0 .3 0v-.1c0-.1-.1-.1-.1-.1h-.1q-.1 0-.2 0c0 0-.1 0-.2 0v-.1q.1-.1 .2-.1c0 0 .1 0 .2 0c0 0 .1 0 .1 0c.1 0 .1 .1 .2 .1v.1c.1 0 .1 .1 .1 .1v.7h-.2Zm1.2-.9l-.5 1.4h-.2l.2-.4l-.4-1h.2l.3 .8l.2-.8Zm1.5 1h-.1V119q0-.1 0-.2l-.1-.1c0 0-.1 0-.1 0q-.1 0-.1 0c-.1 0-.1 .1-.2 .1v.7h-.2v-1.4h.2v.5q.1 0 .2-.1c0 0 .1 0 .1 0c.1 0 .2 0 .3 .1c0 .1 0 .2 0 .3Zm.9-.2V119q-.1 0-.2 0c0 0-.1 0-.1 0q-.1 .1-.2 .1c0 0 0 .1 0 .1q0 .1 .1 .2h.1q.1 0 .1 0q.1-.1 .2-.1Zm0 .1c0 0-.1 .1-.1 .1h-.1q-.1 .1-.2 .1c0 0 0-.1-.1-.1c0 0-.1 0-.1 0q0-.1-.1-.1q0-.1 0-.2c0 0 0-.1 .1-.1c0-.1 .1-.1 .1-.1q.1-.1 .2-.1c.1 0 .2 0 .3 0v-.1q-.1-.1-.1-.1c0 0-.1 0-.1 0h-.1c0 0-.1 0-.1 0q-.1 0-.2 0v-.1c0-.1 .1-.1 .1-.1c.1 0 .2 0 .2 0q.1 0 .2 0c.1 0 .1 .1 .1 .1q.1 0 .1 .1c0 0 0 .1 0 .1v.7h-.1Zm1.2-.9l-.4 1h-.1l-.4-1h.2l.2 .8l.3-.8Zm.6 1.1c-.2 0-.3-.1-.4-.2c-.1-.1-.1-.2-.1-.4c0-.1 0-.2 .1-.4c.1 0 .2-.1 .3-.1q.1 0 .2 0q.1 .1 .1 .1q.1 .1 .1 .2c0 0 0 .1 0 .2h-.7c0 .2 .1 .3 .1 .3c.1 .1 .2 .1 .3 .1h.1c0 0 .1 0 .1 0q0-.1 .1-.1v.2h-.1q-.1 0-.1 0c-.1 0-.1 .1-.1 .1Zm.2-.7c0 0 0-.1 0-.1c0 0-.1-.1-.1-.1h-.1q0-.1-.1-.1c0 0-.1 0-.1 .1c0 0-.1 0-.1 0q0 .1 0 .1c-.1 0-.1 .1-.1 .1Zm1.6 .1c0-.1 0-.2-.1-.2c0-.1-.1-.1-.1-.1q-.1 0-.2 0c0 0-.1 .1-.1 .1v.5c0 .1 .1 .1 .1 .1c0 0 .1 0 .1 0c.1 0 .2 0 .2-.1c.1 0 .1-.1 .1-.3Zm.2 0c0 .2-.1 .3-.1 .4c-.1 .1-.2 .2-.4 .2c0 0-.1-.1-.1-.1c0 0-.1 0-.1 0h-.2v-1.4h.2v.5c0 0 .1 0 .1-.1q.1 0 .2 0c.1 0 .2 .1 .3 .1c0 .1 .1 .3 .1 .4Zm.6 .6c-.2 0-.3-.1-.4-.2c-.1-.1-.1-.2-.1-.4c0-.1 0-.2 .1-.4c.1 0 .2-.1 .4-.1c0 0 .1 0 .1 0q.1 .1 .2 .1q0 .1 0 .2c.1 0 .1 .1 .1 .2h-.7c0 .2 0 .3 .1 .3c0 .1 .1 .1 .2 .1c0 0 .1 0 .1 0q.1 0 .1 0c0-.1 .1-.1 .1-.1h.1v.2q-.1 0-.1 0q-.1 0-.1 0c0 0-.1 0-.1 0c0 0-.1 .1-.1 .1Zm.2-.7c0 0 0-.1 0-.1c0 0 0-.1-.1-.1q-.1-.1-.1-.1q-.1 0-.2 .1h-.1q0 .1 0 .1c0 0 0 .1 0 .1Zm.8 .7c-.2 0-.3-.1-.4-.2c-.1-.1-.1-.2-.1-.4c0-.1 0-.2 .1-.4c.1 0 .2-.1 .3-.1c.1 0 .2 0 .2 0q.1 .1 .2 .1q0 .1 0 .2c.1 0 .1 .1 .1 .2h-.7c0 .2 0 .3 0 .3c.1 .1 .2 .1 .3 .1c0 0 .1 0 .1 0c0 0 .1 0 .1 0c0-.1 .1-.1 .1-.1v.2q-.1 0-.1 0c0 0-.1 0-.1 0c0 0-.1 .1-.1 .1Zm.2-.7c0 0 0-.1 0-.1c0 0 0-.1-.1-.1q-.1-.1-.2-.1l-.1 .1h-.1q0 .1 0 .1c0 0 0 .1 0 .1Zm1.2 .6H165V119q0-.1 0-.2l-.1-.1c0 0-.1 0-.1 0q-.1 0-.2 0c0 0 0 .1-.1 .1v.7h-.2v-1h.2v.1q.1 0 .2-.1c0 0 .1 0 .1 0c.1 0 .2 0 .3 .1c0 .1 .1 .2 .1 .3Zm2 0V119q0-.1-.1-.2v-.1q-.1 0-.1 0q-.1 0-.1 0c-.1 0-.1 .1-.2 .1c0 0 0 .1 0 .1v.6h-.1V119q0-.1 0-.2c0 0-.1 0-.1-.1c0 0-.1 0-.1 0c0 0-.1 0-.1 0c-.1 0-.1 .1-.1 .1v.7H166v-1h.2v.1c0 0 .1 0 .1-.1c0 0 .1 0 .1 0c.1 0 .2 0 .2 0q.1 .1 .1 .2q.1-.1 .2-.1c0-.1 .1-.1 .1-.1q.1 0 .1 0c.1 0 .1 .1 .1 .1c.1 0 .1 .1 .1 .1q0 .1 0 .2v.6Zm1.2-.5c0 .2 0 .3-.1 .4c-.1 .1-.2 .2-.3 .2c-.2 0-.3-.1-.4-.2c-.1-.1-.1-.2-.1-.4c0-.1 0-.3 .1-.4c.1 0 .2-.1 .4-.1c.1 0 .2 .1 .3 .1c.1 .1 .1 .3 .1 .4Zm-.2 0c0-.1 0-.2 0-.3c-.1 0-.2-.1-.2-.1c-.1 0-.2 .1-.2 .1c-.1 .1-.1 .2-.1 .3c0 .2 0 .3 .1 .3c0 .1 .1 .1 .2 .1c0 0 .1 0 .2-.1c0 0 0-.1 0-.3Zm1.2-.5l-.4 1h-.1l-.4-1h.2l.2 .8l.3-.8Zm.6 1.1c-.2 0-.3-.1-.4-.2c-.1-.1-.1-.2-.1-.4c0-.1 0-.2 .1-.4c.1 0 .2-.1 .3-.1c.1 0 .2 0 .2 0q.1 .1 .1 .1q.1 .1 .1 .2c0 0 0 .1 0 .2h-.7c0 .2 .1 .3 .1 .3c.1 .1 .2 .1 .3 .1c0 0 .1 0 .1 0c0 0 .1 0 .1 0c0-.1 .1-.1 .1-.1v.2q-.1 0-.1 0q-.1 0-.1 0c0 0-.1 .1-.1 .1Zm.2-.7c0 0 0-.1 0-.1c0 0-.1-.1-.1-.1H170q0-.1-.1-.1c0 0-.1 0-.1 .1h-.1q0 .1 0 .1c0 0-.1 .1-.1 .1Zm1.1 .6h-.2v-.1q0 .1 0 .1c0 0-.1 0-.1 0h-.1q0 .1-.1 .1c0 0-.1-.1-.1-.1q-.1 0-.1-.1c-.1 0-.1-.1-.1-.1c0-.1 0-.2 0-.3c0 0 0-.1 0-.2c0 0 0-.1 .1-.2c0 0 .1 0 .1-.1q.1 0 .2 0c0 0 .1 0 .1 0c.1 0 .1 .1 .1 .1v-.5h.2Zm-.2-.2v-.6h-.2q-.1 0-.2 .1c0 0-.1 .1-.1 .2c0 .2 .1 .2 .1 .3c0 .1 .1 .1 .2 .1c0 0 .1 0 .1 0q.1-.1 .1-.1Zm.8 0l-.3 .6h-.1l.2-.6Zm1.4-.6v0h-.1q-.1 0-.2 0c0 .1-.1 .1-.1 .1v.7h-.2v-1h.2v.2q.1-.1 .2-.1c0-.1 .1-.1 .1-.1h.1Zm.6 .9c-.2 0-.3-.1-.4-.2c-.1-.1-.2-.2-.2-.4c0-.1 .1-.2 .2-.4c.1 0 .2-.1 .3-.1q.1 0 .2 0c0 .1 .1 .1 .1 .1q.1 .1 .1 .2c0 0 0 .1 0 .2h-.7c0 .2 .1 .3 .1 .3c.1 .1 .2 .1 .3 .1h.2q0-.1 .1-.1v.2h-.1q-.1 0-.1 0c-.1 0-.1 .1-.1 .1Zm.2-.7c0 0 0-.1-.1-.1c0 0 0-.1 0-.1h-.1q0-.1-.1-.1c0 0-.1 0-.1 .1c0 0-.1 0-.1 0q0 .1-.1 .1c0 0 0 .1 0 .1Zm1.1 .6H175V119q0-.1 0-.2v-.1h-.1q-.1 0-.2 0c0 0-.1 .1-.1 .1v.7h-.2v-1h.2v.1c0 0 .1 0 .1-.1q.1 0 .2 0c.1 0 .2 0 .2 .1c.1 .1 .1 .2 .1 .3Zm.8-.2V119c0 0-.1 0-.1 0q-.1 0-.2 0c0 .1-.1 .1-.1 .1c0 0 0 .1 0 .1q0 .1 0 .2c0 0 .1 0 .2 0c0 0 .1 0 .1 0q.1-.1 .1-.1Zm0 .1c0 0 0 .1 0 .1c0 0-.1 0-.1 0c0 0-.1 0-.1 0q0 .1-.1 .1c0 0-.1-.1-.1-.1q-.1 0-.1 0q-.1-.1-.1-.1q0-.1 0-.2c0 0 0-.1 0-.1q.1-.1 .2-.1c0-.1 .1-.1 .2-.1q.1 0 .2 0v-.1q0-.1 0-.1q-.1 0-.1 0q-.1 0-.1 0q-.1 0-.2 0c0 0-.1 0-.1 0v-.1c0-.1 .1-.1 .1-.1q.1 0 .2 0q.1 0 .2 0c0 0 .1 .1 .1 .1c0 0 .1 0 .1 .1c0 0 0 .1 0 .1v.7H176Zm1.6 .1V119q0-.1 0-.2v-.1h-.1q-.1 0-.2 0c0 0 0 .1-.1 .1c0 0 0 .1 0 .1v.6H177V119q0-.1 0-.2v-.1q-.1 0-.1 0q-.1 0-.2 0c0 0 0 .1-.1 .1v.7h-.1v-1h.1v.1q.1 0 .2-.1c0 0 .1 0 .1 0q.1 0 .2 0q0 .1 .1 .2c0-.1 .1-.1 .1-.1q.1-.1 .2-.1c0 0 .1 0 .1 0c0 0 .1 .1 .1 .1c0 0 .1 .1 .1 .1q0 .1 0 .2v.6Zm.9 .1c-.2 0-.3-.1-.4-.2c-.1-.1-.1-.2-.1-.4c0-.1 0-.2 .1-.4c.1 0 .2-.1 .3-.1c.1 0 .2 0 .2 0q.1 .1 .2 .1q0 .1 0 .2c0 0 .1 .1 .1 .2h-.8c0 .2 .1 .3 .1 .3c.1 .1 .2 .1 .3 .1c0 0 .1 0 .1 0c0 0 .1 0 .1 0c0-.1 .1-.1 .1-.1v.2q-.1 0-.1 0q-.1 0-.1 0c0 0-.1 .1-.1 .1Zm.2-.7c0 0 0-.1 0-.1c0 0-.1-.1-.1-.1q-.1-.1-.2-.1l-.1 .1h-.1q0 .1 0 .1c0 0 0 .1-.1 .1Zm1.1 .6h-.1v-.1q-.1 .1-.1 .1c0 0-.1 0-.1 0h-.1q0 .1-.1 .1c0 0-.1-.1-.1-.1q-.1 0-.1-.1c-.1 0-.1-.1-.1-.1c0-.1 0-.2 0-.3c0 0 0-.1 0-.2c0 0 .1-.1 .1-.2c0 0 .1 0 .1-.1q.1 0 .2 0q.1 0 .1 0c.1 0 .1 .1 .2 .1v-.5h.1Zm-.1-.2v-.6q-.1 0-.2 0h-.1q-.1 0-.2 .1c0 0-.1 .1-.1 .2c0 .2 .1 .2 .1 .3c0 .1 .1 .1 .2 .1c0 0 .1 0 .1 0q.1-.1 .2-.1Zm.7 0l-.2 .6H180l.2-.6Zm1.7-.3c0 .2 0 .3-.1 .4c-.1 .1-.2 .2-.4 .2c-.1 0-.2-.1-.3-.2c-.1-.1-.1-.2-.1-.4c0-.1 0-.3 .1-.4c.1 0 .2-.1 .3-.1c.2 0 .3 .1 .4 .1c.1 .1 .1 .3 .1 .4Zm-.2 0c0-.1 0-.2-.1-.3c0 0-.1-.1-.2-.1c-.1 0-.1 .1-.2 .1c0 .1-.1 .2-.1 .3c0 .2 .1 .3 .1 .3q.1 .1 .2 .1c.1 0 .2 0 .2-.1c.1 0 .1-.1 .1-.3Zm.9-.3v0q-.1 0-.1 0c0 0-.1 0-.1 0q-.1 .1-.2 .1v.7h-.1v-1h.1v.2c.1-.1 .2-.1 .2-.1c0-.1 .1-.1 .1-.1q.1 0 .1 0Zm1.5 .8h-.1v-.1q-.1 .1-.1 .1c0 0-.1 0-.1 0h-.1q0 .1-.1 .1c0 0-.1-.1-.1-.1q-.1 0-.1-.1c-.1 0-.1-.1-.1-.1c0-.1 0-.2 0-.3c0 0 0-.1 0-.2c0 0 0-.1 .1-.2c0 0 .1 0 .1-.1q.1 0 .2 0c0 0 .1 0 .1 0c.1 0 .1 .1 .2 .1v-.5h.1Zm-.1-.2v-.6q-.1 0-.2 0h-.1q-.1 0-.2 .1c0 0-.1 .1-.1 .2c0 .2 .1 .2 .1 .3c0 .1 .1 .1 .2 .1c0 0 .1 0 .1 0q.1-.1 .2-.1Zm.8 .3c-.1 0-.3-.1-.4-.2c0-.1-.1-.2-.1-.4c0-.1 .1-.2 .1-.4c.1 0 .2-.1 .4-.1c0 0 .1 0 .2 0q0 .1 .1 .1c0 .1 .1 .1 .1 .2c0 0 0 .1 0 .2h-.7c0 .2 0 .3 .1 .3c0 .1 .1 .1 .2 .1q.1 0 .1 0q.1 0 .1 0q.1-.1 .1-.1c0 0 .1 0 .1 0v.2c0 0-.1 0-.1 0c0 0-.1 0-.1 0h-.1c0 0 0 .1-.1 .1Zm.2-.7c0 0 0-.1 0-.1c0 0 0-.1 0-.1c0 0-.1 0-.1 0c0-.1-.1-.1-.1-.1q-.1 0-.1 .1q-.1 0-.1 0q-.1 .1-.1 .1c0 0 0 .1 0 .1Zm.5 .6h-.1v-1.4h.1Zm.8 .1c-.2 0-.3-.1-.4-.2c-.1-.1-.2-.2-.2-.4c0-.1 .1-.2 .2-.4c0 0 .2-.1 .3-.1q.1 0 .2 0c0 .1 .1 .1 .1 .1c0 .1 .1 .1 .1 .2c0 0 0 .1 0 .2h-.7c0 .2 0 .3 .1 .3q.1 .1 .3 .1h.2q0-.1 0-.1q.1 0 .1 0v.2h-.2c-.1 0-.1 .1-.1 .1Zm.1-.7c0 0 0-.1 0-.1c0 0 0-.1 0-.1c0 0-.1 0-.1 0q0-.1-.1-.1c0 0-.1 0-.1 .1c0 0-.1 0-.1 0c0 .1-.1 .1-.1 .1c0 0 0 .1 0 .1Zm.7 .6c-.1 0-.2 0-.2 0c-.1-.1-.1-.2-.1-.3v-.5h-.1v-.2h.1v-.3h.2v.3h.3v.2h-.3v.6q0 .1 .1 .1h.1q.1 0 .1 0v.1c0 0-.1 0-.1 0c0 0-.1 0-.1 0Zm.8 .1c-.2 0-.3-.1-.4-.2c-.1-.1-.1-.2-.1-.4c0-.1 0-.2 .1-.4c.1 0 .2-.1 .3-.1q.1 0 .2 0q.1 .1 .1 .1q.1 .1 .1 .2c0 0 .1 .1 .1 .2h-.8c0 .2 .1 .3 .1 .3c.1 .1 .2 .1 .3 .1h.1c0 0 .1 0 .1 0q0-.1 .1-.1v.2h-.1q-.1 0-.1 0c-.1 0-.1 .1-.1 .1Zm.2-.7c0 0 0-.1 0-.1c0 0-.1-.1-.1-.1h-.1q0-.1-.1-.1c0 0-.1 0-.1 .1c0 0-.1 0-.1 0q0 .1 0 .1c-.1 0-.1 .1-.1 .1Zm1.1 .6h-.2v-.1q0 .1 0 .1c0 0-.1 0-.1 0c0 0-.1 0-.1 0q0 .1-.1 .1c0 0-.1-.1-.1-.1q-.1 0-.1-.1c-.1 0-.1-.1-.1-.1c0-.1-.1-.2-.1-.3c0 0 .1-.1 .1-.2c0 0 0-.1 .1-.2c0 0 .1 0 .1-.1q.1 0 .2 0c0 0 .1 0 .1 0c.1 0 .1 .1 .1 .1v-.5h.2Zm-.2-.2v-.6h-.1c0 0-.1 0-.1 0c-.1 0-.2 0-.2 .1c0 0-.1 .1-.1 .2q0 .2 .1 .3c0 .1 .1 .1 .2 .1c0 0 .1 0 .1 0q.1-.1 .1-.1Zm.7 .2h-.2v-.2h.2Zm1.9-1.3l-.4 1.3h-.2l-.5-1.3h.2l.4 1.1l.3-1.1Zm.6 1.4c-.2 0-.3-.1-.4-.2c-.1-.1-.1-.2-.1-.4c0-.1 0-.2 .1-.4c.1 0 .2-.1 .4-.1c0 0 .1 0 .1 0q.1 .1 .2 .1q0 .1 0 .2c.1 0 .1 .1 .1 .2h-.7c0 .2 0 .3 0 .3c.1 .1 .2 .1 .3 .1c0 0 .1 0 .1 0c0 0 .1 0 .1 0c0-.1 .1-.1 .1-.1h.1v.2q-.1 0-.1 0c0 0-.1 0-.1 0c0 0-.1 0-.1 0c0 0-.1 .1-.1 .1Zm.2-.7c0 0 0-.1 0-.1c0 0 0-.1-.1-.1q-.1-.1-.2-.1l-.1 .1h-.1q0 .1 0 .1c0 0 0 .1 0 .1Zm.9-.2v0h-.1q-.1 0-.2 0q0 .1-.1 .1v.7h-.2v-1h.2v.2q.1-.1 .2-.1c0-.1 .1-.1 .1-.1h.1Zm.3 .8h-.2v-1h.2Zm0-1.1h-.2v-.2h.2Zm.8-.1v0c0 0-.1 0-.1 0c-.1 0-.2 0-.2 0c0 .1-.1 .1-.1 .2h.3v.2h-.2v.8h-.2v-.8H194v-.2h.1c0-.1 0-.2 .1-.3c0 0 .1-.1 .2-.1q.1 0 .1 0c0 0 .1 0 .1 0Zm.9 .2l-.6 1.4h-.2l.2-.4l-.4-1h.2l.3 .8l.3-.8Zm1 1c-.1 0-.2 0-.2 0c-.1-.1-.1-.2-.1-.3v-.5h-.1v-.2h.1v-.3h.2v.3h.3v.2h-.3v.6q0 .1 .1 .1q.1 0 .1 0q.1 0 .1 0v.1c0 0-.1 0-.1 0c0 0-.1 0-.1 0Zm1.1 0h-.1V119q0-.1 0-.2c0 0-.1 0-.1-.1q-.1 0-.1 0q-.1 0-.2 0c0 0-.1 .1-.1 .1v.7h-.2v-1.4h.2v.5q.1 0 .1-.1c.1 0 .2 0 .2 0c.1 0 .2 0 .2 .1c.1 .1 .1 .2 .1 .3Zm.9-.2V119q-.1 0-.2 0q-.1 0-.2 0q0 .1-.1 .1c0 0 0 .1 0 .1q0 .1 0 .2q.1 0 .2 0c0 0 .1 0 .1 0q.1-.1 .2-.1Zm0 .1c-.1 0-.1 .1-.1 .1h-.2q0 .1-.1 .1c0 0-.1-.1-.1-.1c0 0-.1 0-.1 0c0-.1-.1-.1-.1-.1q0-.1 0-.2c0 0 0-.1 0-.1q.1-.1 .2-.1c0-.1 .1-.1 .2-.1c.1 0 .2 0 .3 0v-.1c0 0-.1 0-.1 0q0-.1 0-.1c0 0-.1 0-.1 0c0 0-.1 0-.1 0c0 0-.1 0-.1 0q-.1 0-.2 0v-.1c0-.1 .1-.1 .1-.1q.1 0 .2 0q.1 0 .2 0c0 0 .1 .1 .1 .1q.1 0 .1 .1c0 0 0 .1 0 .1v.7h-.1Zm.7 .1c-.1 0-.2 0-.2 0c-.1-.1-.1-.2-.1-.3v-.5h-.1v-.2h.1v-.3h.2v.3h.3v.2h-.3v.6q0 .1 0 .1c0 0 .1 0 .1 0q.1 0 .1 0h.1v.1q-.1 0-.1 0q-.1 0-.1 0Zm1.2 0c-.1 0-.2 0-.2 0c-.1-.1-.1-.2-.1-.3v-.5H200v-.2h.1v-.3h.2v.3h.3v.2h-.3v.6q0 .1 .1 .1q.1 0 .1 0q.1 0 .1 0v.1c0 0-.1 0-.1 0c0 0-.1 0-.1 0Zm1.1 0h-.1V119q0-.1-.1-.2v-.1q-.1 0-.1 0q-.1 0-.2 0c0 0-.1 .1-.1 .1v.7h-.2v-1.4h.2v.5c0 0 .1 0 .1-.1q.1 0 .2 0c.1 0 .2 0 .2 .1c.1 .1 .1 .2 .1 .3Zm.7 .1c-.1 0-.3-.1-.4-.2c-.1-.1-.1-.2-.1-.4c0-.1 0-.2 .1-.4c.1 0 .2-.1 .4-.1c0 0 .1 0 .2 0q0 .1 .1 .1q0 .1 .1 .2c0 0 0 .1 0 .2h-.7c0 .2 0 .3 .1 .3c0 .1 .1 .1 .2 .1q.1 0 .1 0q.1 0 .1 0q.1-.1 .1-.1c0 0 .1 0 .1 0v.2c0 0-.1 0-.1 0c0 0-.1 0-.1 0h-.1c0 0 0 .1-.1 .1Zm.2-.7c0 0 0-.1 0-.1c0 0 0-.1 0-.1q-.1 0-.1 0c0-.1-.1-.1-.1-.1q-.1 0-.2 .1q-.1 .1-.1 .1c0 0 0 .1 0 .1Zm1.1 .6h-.1v-1.4h.1Zm.5 0h-.2v-1h.2Zm0-1.1h-.2v-.2h.2Zm1 1.1h-.1V119q0-.1-.1-.2v-.1q-.1 0-.1 0q-.1 0-.2 0c0 0-.1 .1-.1 .1v.7h-.2v-1h.2v.1c0 0 .1 0 .2-.1h.1c.1 0 .2 0 .3 .1c0 .1 0 .2 0 .3Zm1.1 0h-.2l-.4-.5l-.1 .1v.4h-.1v-1.4h.1v.9l.5-.5h.2l-.5 .5Zm1.6-.5c0 .2-.1 .3-.2 .4c0 .1-.1 .1-.3 .1c0 0-.1 0-.1 0c0 0-.1 0-.1 0v.4h-.2v-1.4h.2v.1c0 0 .1 0 .1-.1q.1 0 .2 0c.1 0 .2 .1 .3 .1c0 .1 .1 .3 .1 .4Zm-.2 0c0-.1 0-.2-.1-.2c0-.1-.1-.1-.2-.1h-.1c0 0-.1 .1-.1 .1v.5c0 .1 .1 .1 .1 .1c0 0 .1 0 .1 0c.1 0 .2 0 .2-.1q.1-.1 .1-.3Zm1.2 0c0 .2-.1 .3-.1 .4c-.1 .1-.2 .2-.4 .2c-.1 0-.2-.1-.3-.2c-.1-.1-.1-.2-.1-.4c0-.1 0-.3 .1-.4c.1 0 .2-.1 .3-.1c.2 0 .3 .1 .4 .1c0 .1 .1 .3 .1 .4Zm-.2 0c0-.1 0-.2 0-.3c-.1 0-.2-.1-.3-.1c-.1 0-.1 .1-.2 .1c0 .1 0 .2 0 .3c0 .2 0 .3 0 .3q.1 .1 .2 .1c.1 0 .2 0 .3-.1c0 0 0-.1 0-.3Zm.5 .5h-.1v-1h.1Zm.1-1.1h-.2v-.2h.2Zm1 1.1h-.2V119q0-.1 0-.2v-.1q-.1 0-.2 0h-.1c0 0-.1 .1-.1 .1v.7h-.2v-1h.2v.1c0 0 .1 0 .1-.1q.1 0 .2 0c.1 0 .2 0 .2 .1c.1 .1 .1 .2 .1 .3Zm.6 0c-.1 0-.2 0-.2 0c-.1-.1-.1-.2-.1-.3v-.5h-.1v-.2h.1v-.3h.1v.3h.4v.2h-.4v.6c0 0 .1 0 .1 0q0 .1 0 .1c0 0 .1 0 .1 0c0 0 .1 0 .1 0h.1v.1q-.1 0-.1 0q-.1 0-.1 0Zm.6 .1c-.1 0-.2-.1-.2-.1q-.1 0-.2 0v-.2q.1 0 .1 0l.1 .1h.3c.1 0 .1-.1 .1-.1q0-.1 0-.1c-.1 0-.1-.1-.2-.1h-.1c-.1 0-.2-.1-.2-.1q-.1-.1-.1-.2c0-.1 .1-.2 .1-.2c.1-.1 .2-.1 .3-.1q.1 0 .2 0c.1 0 .1 .1 .1 .1v.2c0-.1-.1-.1-.1-.1c-.1 0-.1-.1-.2-.1c-.1 0-.1 .1-.1 .1q-.1 0-.1 .1c0 0 0 .1 0 .1q.1 0 .2 0c0 0 0 .1 0 .1q.1 0 .1 0c.1 0 .2 0 .2 .1c.1 0 .1 .1 .1 .1q0 .1-.1 .2v.1q-.1 0-.2 0c0 0-.1 .1-.1 .1Zm1.4-.1q-.1 0-.2 0c0-.1-.1-.2-.1-.3v-.5h-.1v-.2h.1v-.3h.2v.3h.3v.2h-.3v.6c0 .1 .1 .1 .1 .1h.2v.1h-.2Zm1.2-.5c0 .2 0 .3-.1 .4c-.1 .1-.2 .2-.4 .2c-.1 0-.2-.1-.3-.2c-.1-.1-.1-.2-.1-.4c0-.1 0-.3 .1-.4c.1 0 .2-.1 .3-.1c.2 0 .3 .1 .4 .1c.1 .1 .1 .3 .1 .4Zm-.2 0c0-.1 0-.2-.1-.3c0 0-.1-.1-.2-.1c0 0-.1 .1-.2 .1c0 .1 0 .2 0 .3c0 .2 0 .3 0 .3c.1 .1 .2 .1 .2 .1c.1 0 .2 0 .2-.1c.1 0 .1-.1 .1-.3Zm1.3 .5c-.1 0-.2 0-.2 0c-.1-.1-.1-.2-.1-.3v-.5h-.1v-.2h.1v-.3h.2v.3h.3v.2h-.3v.6q0 .1 0 .1c0 0 .1 0 .1 0c0 0 .1 0 .1 0c0 0 .1 0 .1 0v.1q-.1 0-.1 0q-.1 0-.1 0Zm1.1 0h-.2V119q0-.1 0-.2v-.1h-.2c0 0-.1 0-.1 0c0 0-.1 .1-.1 .1v.7h-.2v-1.4h.2v.5c0 0 .1 0 .1-.1q.1 0 .2 0c.1 0 .2 0 .2 .1c.1 .1 .1 .2 .1 .3Zm.7 .1c-.2 0-.3-.1-.4-.2c-.1-.1-.1-.2-.1-.4c0-.1 0-.2 .1-.4c.1 0 .2-.1 .4-.1c0 0 .1 0 .1 0q.1 .1 .2 .1q0 .1 0 .2c.1 0 .1 .1 .1 .2h-.7c0 .2 0 .3 0 .3c.1 .1 .2 .1 .3 .1c0 0 .1 0 .1 0c0 0 .1 0 .1 0c0-.1 .1-.1 .1-.1h.1v.2q-.1 0-.1 0c0 0-.1 0-.1 0c0 0-.1 0-.1 0c0 0-.1 .1-.1 .1Zm.2-.7c0 0 0-.1 0-.1c0 0 0-.1-.1-.1q-.1-.1-.2-.1l-.1 .1h-.1q0 .1 0 .1c0 0 0 .1 0 .1Zm1.3 .7c0 0-.1-.1-.1-.1c-.1 0-.2 0-.2-.1c0 0-.1-.1-.1-.1c0-.1 0-.2 0-.3c0 0 0-.1 0-.2c0-.1 .1-.1 .1-.2c0 0 .1 0 .2-.1c0 0 .1 0 .1 0c.1 0 .2 0 .2 0q.1 .1 .2 .1v.2h-.1v-.1c0 0-.1 0-.1 0h-.2c0 0-.1 0-.2 .1c0 0-.1 .1-.1 .2c0 .2 .1 .2 .1 .3q.1 .1 .2 .1c.1 0 .2 0 .2 0c0-.1 .1-.1 .1-.1h.1v.2q-.1 0-.1 0c0 0-.1 0-.1 0h-.1c0 0 0 .1-.1 .1Zm1.3-.6c0 .2 0 .3-.1 .4c0 .1-.2 .2-.3 .2c-.1 0-.3-.1-.3-.2c-.1-.1-.2-.2-.2-.4c0-.1 .1-.3 .2-.4c0 0 .2-.1 .3-.1c.1 0 .3 .1 .3 .1c.1 .1 .1 .3 .1 .4Zm-.1 0c0-.1 0-.2-.1-.3c0 0-.1-.1-.2-.1c-.1 0-.2 .1-.2 .1c-.1 .1-.1 .2-.1 .3c0 .2 0 .3 .1 .3c0 .1 .1 .1 .2 .1c.1 0 .2 0 .2-.1c.1 0 .1-.1 .1-.3Zm.9-.3v0c0 0-.1 0-.1 0q-.1 0-.2 0c0 .1-.1 .1-.1 .1v.7h-.2v-1h.2v.2q.1-.1 .2-.1c0-.1 .1-.1 .1-.1h.1Zm.7 0v0q-.1 0-.1 0q-.1 0-.2 0c0 .1-.1 .1-.1 .1v.7h-.2v-1h.2v.2c0-.1 .1-.1 .2-.1q0-.1 .1-.1c0 0 .1 0 .1 0Zm.5 .9c-.1 0-.3-.1-.3-.2c-.1-.1-.2-.2-.2-.4c0-.1 .1-.2 .2-.4c0 0 .2-.1 .3-.1q.1 0 .2 0c0 .1 .1 .1 .1 .1c0 .1 .1 .1 .1 .2c0 0 0 .1 0 .2h-.7c0 .2 0 .3 .1 .3q.1 .1 .2 .1q.1 0 .2 0q.1-.1 .1-.1q.1 0 .1 0v.2c0 0-.1 0-.1 0h-.2c0 0 0 .1-.1 .1Zm.2-.7c0 0 0-.1 0-.1c0 0 0-.1 0-.1c0 0-.1 0-.1 0c0-.1-.1-.1-.1-.1q-.1 0-.1 .1q-.1 0-.1 0c0 .1-.1 .1-.1 .1c0 0 0 .1 0 .1Zm.8 .7c-.1 0-.1-.1-.2-.1q-.1 0-.2-.1c0 0 0-.1 0-.1c-.1-.1-.1-.2-.1-.3c0 0 0-.1 .1-.2q0-.1 0-.2q.1 0 .2-.1q.1 0 .2 0q.1 0 .2 0c0 .1 .1 .1 .1 .1v.2l-.1-.1c0 0-.1 0-.1 0c0 0-.1 0-.1 0c-.1 0-.2 0-.2 .1c-.1 0-.1 .1-.1 .2q0 .2 .1 .3c0 .1 .1 .1 .2 .1c0 0 .1 0 .2 0c0-.1 .1-.1 .1-.1v.2h-.1q-.1 0-.1 0c0 0-.1 .1-.1 .1Zm.8-.1c-.1 0-.2 0-.3 0c0-.1 0-.2 0-.3v-.5h-.2v-.2h.2v-.3h.1v.3h.4v.2h-.4v.6q.1 0 .1 0q0 .1 0 .1c0 0 .1 0 .1 0c0 0 .1 0 .1 0h.1v.1q-.1 0-.1 0q-.1 0-.1 0Zm1.4-1.2v0q-.1 0-.1 0c-.1 0-.2 0-.2 0q0 .1 0 .2h.3v.2h-.3v.8h-.2v-.8h-.1v-.2h.1c0-.1 0-.2 .1-.3c0 0 .1-.1 .2-.1q.1 0 .1 0q.1 0 .1 0Zm.3 1.2h-.2v-1h.2Zm0-1.1h-.2v-.2h.2Zm.4 1.1h-.2v-1.4h.2Zm.7 .1c-.2 0-.3-.1-.4-.2c-.1-.1-.1-.2-.1-.4c0-.1 0-.2 .1-.4c.1 0 .2-.1 .4-.1c0 0 .1 0 .1 0q.1 .1 .1 .1q.1 .1 .1 .2c.1 0 .1 .1 .1 .2h-.7c0 .2 0 .3 0 .3c.1 .1 .2 .1 .3 .1c0 0 .1 0 .1 0c0 0 .1 0 .1 0c0-.1 .1-.1 .1-.1v.2q-.1 0-.1 0c0 0-.1 0-.1 0c0 0-.1 .1-.1 .1Zm.2-.7c0 0 0-.1 0-.1c0 0 0-.1-.1-.1q-.1-.1-.2-.1l-.1 .1h-.1q0 .1 0 .1c0 0 0 .1 0 .1Zm1.5 .4V119c0 0-.1 0-.2 0c0 0-.1 0-.1 0q-.1 .1-.1 .1c0 0-.1 .1-.1 .1c0 .1 .1 .1 .1 .2c0 0 .1 0 .1 0q.1 0 .2 0c0-.1 .1-.1 .1-.1Zm0 .1c0 0 0 .1 0 .1q-.1 0-.1 0q-.1 0-.1 0c0 .1-.1 .1-.1 .1c-.1 0-.1-.1-.2-.1h-.1q0-.1 0-.1q0-.1 0-.2c0 0 0-.1 0-.1c0-.1 .1-.1 .1-.1c.1-.1 .2-.1 .3-.1c0 0 .1 0 .2 0v-.1q0-.1-.1-.1h-.1q-.1 0-.2 0c0 0-.1 0-.2 0v-.1q.1-.1 .2-.1c0 0 .1 0 .2 0c0 0 .1 0 .1 0c.1 0 .1 .1 .2 .1l.1 .1c0 0 0 .1 0 .1v.7h-.2Zm1.2 .1H229V119q0-.1 0-.2q-.1 0-.1-.1q-.1 0-.1 0q-.1 0-.2 0c0 0-.1 .1-.1 .1v.7h-.2v-1h.2v.1c0 0 .1 0 .1-.1c.1 0 .2 0 .2 0c.1 0 .2 0 .2 .1c.1 .1 .1 .2 .1 .3Zm1.1 0H230v-.1c0 .1-.1 .1-.1 .1q-.1 0-.1 0q-.1 .1-.1 .1c-.1 0-.1-.1-.2-.1c0 0-.1 0-.1-.1c0 0-.1-.1-.1-.1c0-.1 0-.2 0-.3c0 0 0-.1 0-.2c.1 0 .1-.1 .1-.2q.1 0 .2-.1c0 0 .1 0 .1 0q.1 0 .2 0c0 0 0 .1 .1 .1v-.5h.2Zm-.2-.2v-.6q-.1 0-.1 0q-.1 0-.1 0c-.1 0-.2 0-.3 .1c0 0 0 .1 0 .2q0 .2 0 .3q.1 .1 .2 .1q.1 0 .2 0q0-.1 .1-.1Zm1.2 .2H231v-1.4h.2Zm1.1-.5c0 .2-.1 .3-.1 .4c-.1 .1-.2 .2-.4 .2c-.1 0-.2-.1-.3-.2c-.1-.1-.1-.2-.1-.4c0-.1 0-.3 .1-.4c.1 0 .2-.1 .3-.1c.2 0 .3 .1 .4 .1c0 .1 .1 .3 .1 .4Zm-.2 0c0-.1 0-.2-.1-.3c0 0-.1-.1-.2-.1c-.1 0-.1 .1-.2 .1c0 .1-.1 .2-.1 .3c0 .2 .1 .3 .1 .3q.1 .1 .2 .1c.1 0 .2 0 .2-.1c.1 0 .1-.1 .1-.3Zm.8 .6c-.1 0-.2-.1-.2-.1q-.1 0-.2-.1c0 0 0-.1-.1-.1c0-.1 0-.2 0-.3c0 0 0-.1 0-.2q.1-.1 .1-.2q.1 0 .2-.1c0 0 .1 0 .2 0c0 0 .1 0 .1 0q.1 .1 .2 .1v.2c0 0-.1 0-.1-.1H233q-.1 0-.1 0c-.1 0-.2 0-.2 .1c-.1 0-.1 .1-.1 .2q0 .2 .1 .3c0 .1 .1 .1 .2 .1c0 0 .1 0 .1 0q.1-.1 .2-.1v.2c0 0-.1 0-.1 0H233c-.1 0-.1 .1-.1 .1Zm1-.3V119c0 0-.1 0-.1 0c-.1 0-.2 0-.2 0c0 .1-.1 .1-.1 .1c0 0-.1 .1-.1 .1c0 .1 .1 .1 .1 .2c0 0 .1 0 .1 0q.1 0 .2 0c0-.1 .1-.1 .1-.1Zm0 .1c0 0 0 .1 0 .1q-.1 0-.1 0c0 0-.1 0-.1 0c0 .1-.1 .1-.1 .1c-.1 0-.1-.1-.1-.1q-.1 0-.1 0q-.1-.1-.1-.1q0-.1 0-.2c0 0 0-.1 0-.1c0-.1 .1-.1 .1-.1c.1-.1 .2-.1 .3-.1c0 0 .1 0 .2 0v-.1q0-.1-.1-.1q-.1 0-.1 0q-.1 0-.2 0c0 0-.1 0-.1 0h-.1v-.1q.1-.1 .2-.1c0 0 .1 0 .2 0c0 0 .1 0 .1 0c.1 0 .1 .1 .2 .1l.1 .1c0 0 0 .1 0 .1v.7h-.2Zm.7 .1q-.1 0-.2 0c0-.1-.1-.2-.1-.3v-.5h-.1v-.2h.1v-.3h.2v.3h.3v.2h-.3v.6c0 .1 .1 .1 .1 .1h.2v.1h-.2Zm.5 0H235v-1h.1Zm0-1.1h-.2v-.2h.2Zm1.1 .6c0 .2 0 .3-.1 .4c-.1 .1-.2 .2-.3 .2c-.2 0-.3-.1-.4-.2c0-.1-.1-.2-.1-.4c0-.1 .1-.3 .1-.4c.1 0 .2-.1 .4-.1c.1 0 .2 .1 .3 .1c.1 .1 .1 .3 .1 .4Zm-.1 0c0-.1-.1-.2-.1-.3c-.1 0-.1-.1-.2-.1c-.1 0-.2 .1-.2 .1c-.1 .1-.1 .2-.1 .3c0 .2 0 .3 .1 .3c0 .1 .1 .1 .2 .1q.1 0 .2-.1c0 0 .1-.1 .1-.3Zm1.1 .5h-.1V119q0-.1-.1-.2v-.1q-.1 0-.1 0q-.1 0-.2 0c0 0-.1 .1-.1 .1v.7h-.2v-1h.2v.1c0 0 .1 0 .1-.1q.1 0 .2 0c.1 0 .2 0 .2 .1c.1 .1 .1 .2 .1 .3Zm.5 0h-.2v-.2h.2Z" class="g0_998"/>
<path d="M83.1 615.9V110.6H313.4m0 0V615.9H83.1" class="g1_998"/>
</svg>