<svg viewBox="0 0 909 1286" version="1.1" xmlns="http://www.w3.org/2000/svg">
<defs>
<style>
.g0_2{fill:#9F9F9F;}
.g1_2{fill:#E2E2E2;}
</style>
</defs>
<image preserveAspectRatio="none" x="339" y="110" width="232" height="507" href="img/1.jpg"/>
<path fill-rule="evenodd" d="M82.5 728.9H827v-2.4H82.5v2.4Z" class="g0_2"/>
<path fill-rule="evenodd" d="M82.5 727h.4v-.3h-.4v.3Z" class="g0_2"/>
<path fill-rule="evenodd" d="M82.5 727h.4v-.3h-.4v.3Z" class="g0_2"/>
<path fill-rule="evenodd" d="M82.9 727H826.8v-.3H82.9v.3Z" class="g0_2"/>
<path fill-rule="evenodd" d="M826.8 727h.4v-.3h-.4v.3Z" class="g1_2"/>
<path fill-rule="evenodd" d="M826.8 727h.4v-.3h-.4v.3Z" class="g0_2"/>
<path fill-rule="evenodd" d="M82.5 728.7h.4V727h-.4v1.7Z" class="g0_2"/>
<path fill-rule="evenodd" d="M826.8 728.7h.4V727h-.4v1.7Z" class="g1_2"/>
<path fill-rule="evenodd" d="M82.5 729h.4v-.3h-.4v.3Z" class="g0_2"/>
<path fill-rule="evenodd" d="M82.5 729h.4v-.3h-.4v.3Z" class="g1_2"/>
<path fill-rule="evenodd" d="M82.9 729H826.8v-.3H82.9v.3Z" class="g1_2"/>
<path fill-rule="evenodd" d="M826.8 729h.4v-.3h-.4v.3Z" class="g1_2"/>
<path fill-rule="evenodd" d="M826.8 729h.4v-.3h-.4v.3Z" class="g1_2"/>
</svg>