<?xml version="1.0" encoding="UTF-8" standalone="no"?>
<!DOCTYPE svg PUBLIC "-//W3C//DTD SVG 1.1//EN"
"http://www.w3.org/Graphics/SVG/1.1/DTD/svg11.dtd">
<svg viewBox="0 0 935 1210" version="1.1" xmlns="http://www.w3.org/2000/svg" xmlns:xlink="http://www.w3.org/1999/xlink">
<defs>
<style type="text/css"><![CDATA[
.g0_53{
fill: #000;
}
]]></style>
</defs>
<path d="M149 580.4c0 .5 -.1 1 -.3 1.5c-.3 .5 -.5 .9 -.9 1.3c-.4 .4 -.8 .7 -1.3 .9c-.5 .2 -1 .3 -1.6 .3c-.5 0 -1 -.1 -1.5 -.3c-.5 -.2 -.9 -.5 -1.3 -.9c-.4 -.4 -.7 -.8 -.9 -1.3c-.2 -.5 -.3 -1 -.3 -1.5c0 -.6 .1 -1.1 .3 -1.6c.2 -.5 .5 -.9 .9 -1.3c.4 -.4 .8 -.6 1.3 -.8c.5 -.2 1 -.3 1.5 -.3c.6 0 1.1 .1 1.6 .3c.5 .2 .9 .4 1.3 .8c.4 .4 .6 .8 .9 1.3c.2 .5 .3 1 .3 1.6Z" class="g0_53"/>
<path d="M149 690.4c0 .5 -.1 1 -.3 1.5c-.3 .5 -.5 .9 -.9 1.3c-.4 .4 -.8 .7 -1.3 .9c-.5 .2 -1 .3 -1.6 .3c-.5 0 -1 -.1 -1.5 -.3c-.5 -.2 -.9 -.5 -1.3 -.9c-.4 -.4 -.7 -.8 -.9 -1.3c-.2 -.5 -.3 -1 -.3 -1.5c0 -.6 .1 -1.1 .3 -1.6c.2 -.5 .5 -.9 .9 -1.3c.4 -.4 .8 -.6 1.3 -.8c.5 -.2 1 -.3 1.5 -.3c.6 0 1.1 .1 1.6 .3c.5 .2 .9 .4 1.3 .8c.4 .4 .6 .8 .9 1.3c.2 .5 .3 1 .3 1.6Z" class="g0_53"/>
<path d="M149 882.9c0 .5 -.1 1 -.3 1.5c-.3 .5 -.5 .9 -.9 1.3c-.4 .4 -.8 .7 -1.3 .9c-.5 .2 -1 .3 -1.6 .3c-.5 0 -1 -.1 -1.5 -.3c-.5 -.2 -.9 -.5 -1.3 -.9c-.4 -.4 -.7 -.8 -.9 -1.3c-.2 -.5 -.3 -1 -.3 -1.5c0 -.6 .1 -1.1 .3 -1.6c.2 -.5 .5 -.9 .9 -1.3c.4 -.4 .8 -.6 1.3 -.8c.5 -.2 1 -.3 1.5 -.3c.6 0 1.1 .1 1.6 .3c.5 .2 .9 .4 1.3 .8c.4 .4 .6 .8 .9 1.3c.2 .5 .3 1 .3 1.6Z" class="g0_53"/>
</svg>