<svg viewBox="0 0 935 1210" version="1.1" xmlns="http://www.w3.org/2000/svg">
<defs>
<clipPath id="c0_1401"><path d="M109.7 1100.3V109.7H825.3v990.6Z"/></clipPath>
<style>
.g0_1401{fill:#FFF;}
.g1_1401{fill:#000;}
</style>
</defs>
<path clip-path="url(#c0_1401)" d="M110-2859.9H825V4180H110V-2859.9Z" class="g0_1401"/>
<path d="M292.2 1019.8H818.1v1.1H292.2v-1.1Z" class="g1_1401"/>
<path d="M817 842.2h1.1v178.7H817V842.2Z" class="g1_1401"/>
<path d="M118 1019.8H293.3v1.1H118v-1.1Z" class="g1_1401"/>
<path d="M118 842.2h1.2v178.7H118V842.2Z" class="g1_1401"/>
<path d="M292.2 842.2h1.1v178.7h-1.1V842.2Z" class="g1_1401"/>
<path d="M292.2 842.2H818.1v1.1H292.2v-1.1Z" class="g1_1401"/>
<path d="M817 609.6h1.1V843.3H817V609.6Z" class="g1_1401"/>
<path d="M118 842.2H293.3v1.1H118v-1.1Z" class="g1_1401"/>
<path d="M118 609.6h1.2V843.3H118V609.6Z" class="g1_1401"/>
<path d="M292.2 609.6h1.1V843.3h-1.1V609.6Z" class="g1_1401"/>
<path d="M292.2 609.6H818.1v1.1H292.2v-1.1Z" class="g1_1401"/>
<path d="M817 542h1.1v68.7H817V542Z" class="g1_1401"/>
<path d="M118 609.6H293.3v1.1H118v-1.1Z" class="g1_1401"/>
<path d="M118 542h1.2v68.7H118V542Z" class="g1_1401"/>
<path d="M292.2 542h1.1v68.7h-1.1V542Z" class="g1_1401"/>
<path d="M292.2 542H818.1v1.1H292.2V542Z" class="g1_1401"/>
<path d="M817 495h1.1v48.1H817V495Z" class="g1_1401"/>
<path d="M118 542H293.3v1.1H118V542Z" class="g1_1401"/>
<path d="M118 495h1.2v48.1H118V495Z" class="g1_1401"/>
<path d="M292.2 495h1.1v48.1h-1.1V495Z" class="g1_1401"/>
<path d="M292.2 495H818.1v1.1H292.2V495Z" class="g1_1401"/>
<path d="M817 372.4h1.1V496.1H817V372.4Z" class="g1_1401"/>
<path d="M118 495H293.3v1.1H118V495Z" class="g1_1401"/>
<path d="M118 372.4h1.2V496.1H118V372.4Z" class="g1_1401"/>
<path d="M292.2 372.4h1.1V496.1h-1.1V372.4Z" class="g1_1401"/>
<path d="M292.2 112.3H818.1v1.1H292.2v-1.1Z" class="g1_1401"/>
<path d="M292.2 372.4H818.1v1.1H292.2v-1.1Z" class="g1_1401"/>
<path d="M817 112.3h1.1V373.5H817V112.3Z" class="g1_1401"/>
<path d="M118 112.3H293.3v1.1H118v-1.1Z" class="g1_1401"/>
<path d="M118 372.4H293.3v1.1H118v-1.1Z" class="g1_1401"/>
<path d="M118 112.3h1.2V373.5H118V112.3Z" class="g1_1401"/>
<path d="M292.2 112.3h1.1V373.5h-1.1V112.3Z" class="g1_1401"/>
<path d="M292.2 112.3H818.1v1.1H292.2v-1.1Z" class="g1_1401"/>
<path d="M118 112.3H293.3v1.1H118v-1.1Z" class="g1_1401"/>
</svg>