<svg viewBox="0 0 935 1210" version="1.1" xmlns="http://www.w3.org/2000/svg">
<defs>
<clipPath id="c0_1403"><path d="M109.7 1100.3V109.7H825.3v990.6Z"/></clipPath>
<style>
.g0_1403{fill:#FFF;}
.g1_1403{fill:#000;}
</style>
</defs>
<path clip-path="url(#c0_1403)" d="M110-4839.9H825V2200H110V-4839.9Z" class="g0_1403"/>
<path d="M292.2 1017.5H818.1v1.1H292.2v-1.1Z" class="g1_1403"/>
<path d="M817 894.9h1.1v123.7H817V894.9Z" class="g1_1403"/>
<path d="M118 1017.5H293.3v1.1H118v-1.1Z" class="g1_1403"/>
<path d="M118 894.9h1.2v123.7H118V894.9Z" class="g1_1403"/>
<path d="M292.2 894.9h1.1v123.7h-1.1V894.9Z" class="g1_1403"/>
<path d="M292.2 894.9H818.1V896H292.2v-1.1Z" class="g1_1403"/>
<path d="M817 847.9h1.1V896H817V847.9Z" class="g1_1403"/>
<path d="M118 894.9H293.3V896H118v-1.1Z" class="g1_1403"/>
<path d="M118 847.9h1.2V896H118V847.9Z" class="g1_1403"/>
<path d="M292.2 847.9h1.1V896h-1.1V847.9Z" class="g1_1403"/>
<path d="M292.2 847.9H818.1v1.2H292.2v-1.2Z" class="g1_1403"/>
<path d="M817 615.3h1.1V849.1H817V615.3Z" class="g1_1403"/>
<path d="M118 847.9H293.3v1.2H118v-1.2Z" class="g1_1403"/>
<path d="M118 615.3h1.2V849.1H118V615.3Z" class="g1_1403"/>
<path d="M292.2 615.3h1.1V849.1h-1.1V615.3Z" class="g1_1403"/>
<path d="M292.2 615.3H818.1v1.2H292.2v-1.2Z" class="g1_1403"/>
<path d="M817 547.7h1.1v68.8H817V547.7Z" class="g1_1403"/>
<path d="M118 615.3H293.3v1.2H118v-1.2Z" class="g1_1403"/>
<path d="M118 547.7h1.2v68.8H118V547.7Z" class="g1_1403"/>
<path d="M292.2 547.7h1.1v68.8h-1.1V547.7Z" class="g1_1403"/>
<path d="M292.2 547.7H818.1v1.2H292.2v-1.2Z" class="g1_1403"/>
<path d="M817 480.1h1.1v68.8H817V480.1Z" class="g1_1403"/>
<path d="M118 547.7H293.3v1.2H118v-1.2Z" class="g1_1403"/>
<path d="M118 480.1h1.2v68.8H118V480.1Z" class="g1_1403"/>
<path d="M292.2 480.1h1.1v68.8h-1.1V480.1Z" class="g1_1403"/>
<path d="M292.2 480.1H818.1v1.2H292.2v-1.2Z" class="g1_1403"/>
<path d="M817 275h1.1V481.3H817V275Z" class="g1_1403"/>
<path d="M118 480.1H293.3v1.2H118v-1.2Z" class="g1_1403"/>
<path d="M118 275h1.2V481.3H118V275Z" class="g1_1403"/>
<path d="M292.2 275h1.1V481.3h-1.1V275Z" class="g1_1403"/>
<path d="M292.2 275H818.1v1.1H292.2V275Z" class="g1_1403"/>
<path d="M817 179.9h1.1v96.2H817V179.9Z" class="g1_1403"/>
<path d="M118 275H293.3v1.1H118V275Z" class="g1_1403"/>
<path d="M118 179.9h1.2v96.2H118V179.9Z" class="g1_1403"/>
<path d="M292.2 179.9h1.1v96.2h-1.1V179.9Z" class="g1_1403"/>
<path d="M292.2 112.3H818.1v1.1H292.2v-1.1Z" class="g1_1403"/>
<path d="M292.2 179.9H818.1V181H292.2v-1.1Z" class="g1_1403"/>
<path d="M817 112.3h1.1V181H817V112.3Z" class="g1_1403"/>
<path d="M118 112.3H293.3v1.1H118v-1.1Z" class="g1_1403"/>
<path d="M118 179.9H293.3V181H118v-1.1Z" class="g1_1403"/>
<path d="M118 112.3h1.2V181H118V112.3Z" class="g1_1403"/>
<path d="M292.2 112.3h1.1V181h-1.1V112.3Z" class="g1_1403"/>
<path d="M292.2 112.3H818.1v1.1H292.2v-1.1Z" class="g1_1403"/>
<path d="M118 112.3H293.3v1.1H118v-1.1Z" class="g1_1403"/>
</svg>